<svg xmlns="http://www.w3.org/2000/svg" viewBox="0 0 100.23413 100.047"><defs><style>.a{isolation:isolate;}.b,.d{opacity:0.3;}.c,.d{mix-blend-mode:soft-light;}.e{fill:#00a098;opacity:0.4;}.f{fill:none;stroke:#afe100;stroke-miterlimit:10;stroke-width:2px;}</style></defs><title>fase4</title><g class="a"><g class="b"><g class="c"><path d="M46.08665,79.17327,40.2672,88.48475l3.20056,3.20085L61.00122,74.15237a4.66445,4.66445,0,0,0,0-6.5957l-3.977-3.97675L43.75906,76.84528Z"/><path d="M21.64414,69.86174c-2.36355,2.36333,6.19494,10.92171,8.558,8.55838a6.05157,6.05157,0,0,0-8.558-8.55838Z"/><path d="M87.97159,12.09273c-14.54954-5.99087-25.6755,5.135-25.6755,5.135l-25.812,25.812L32.50748,39.063a4.66366,4.66366,0,0,0-6.59547,0L8.37856,56.59627l3.201,3.20085,9.3113-5.81974,2.32805,2.32777.137-.13683,4.27879,4.27919a1.82083,1.82083,0,0,0-2.56746,0l-.85567.85584a1.82027,1.82027,0,0,0,0,2.56752l5.99058,5.99087,5.991,5.99087a1.82083,1.82083,0,0,0,2.56746,0l.85567-.85584a1.82027,1.82027,0,0,0,0-2.56752l4.27925,4.27919L57.02418,63.57992l25.812-25.81209S94.39,27.92571,87.97159,12.09273Z"/></g><g class="d"><path d="M46.08665,79.17327,40.2672,88.48475l3.20056,3.20085L61.00122,74.15237a4.66445,4.66445,0,0,0,0-6.5957l-3.977-3.97675L43.75906,76.84528Z"/><path d="M21.64414,69.86174c-2.36355,2.36333,6.19494,10.92171,8.558,8.55838a6.05157,6.05157,0,0,0-8.558-8.55838Z"/><path d="M87.97159,12.09273c-14.54954-5.99087-25.6755,5.135-25.6755,5.135l-25.812,25.812L32.50748,39.063a4.66366,4.66366,0,0,0-6.59547,0L8.37856,56.59627l3.201,3.20085,9.3113-5.81974,2.32805,2.32777.137-.13683,4.27879,4.27919a1.82083,1.82083,0,0,0-2.56746,0l-.85567.85584a1.82027,1.82027,0,0,0,0,2.56752l5.99058,5.99087,5.991,5.99087a1.82083,1.82083,0,0,0,2.56746,0l.85567-.85584a1.82027,1.82027,0,0,0,0-2.56752l4.27925,4.27919L57.02418,63.57992l25.812-25.81209S94.39,27.92571,87.97159,12.09273Z"/></g></g><path class="e" d="M97.29291,2.77141c-14.54954-5.99087-25.6755,5.135-25.6755,5.135L32.67679,46.847,53.21692,67.38713,92.15754,28.44651S103.71133,18.6044,97.29291,2.77141ZM76.3245,34.86527a7.867,7.867,0,1,1,0-11.12584A7.86663,7.86663,0,0,1,76.3245,34.86527Z"/><path class="e" d="M17.69984,47.275l3.20083,3.20083,9.31151-5.81969,2.328,2.32775L45.80553,33.7185l-3.97679-3.97679a4.66383,4.66383,0,0,0-6.59565,0Z"/><path class="e" d="M52.78917,82.3643l-3.20083-3.20083L55.408,69.852l-2.32775-2.328L66.34564,54.2586l3.97679,3.97679a4.66383,4.66383,0,0,1,0,6.59565Z"/><rect class="e" x="30.9475" y="56.40809" width="20.57573" height="4.84135" rx="1.81551" ry="1.81551" transform="translate(53.67578 -11.92726) rotate(45)"/><path class="e" d="M39.52369,69.09881c-2.36333,2.36333-10.92171-6.195-8.55838-8.55838a6.05169,6.05169,0,1,1,8.55838,8.55838Z"/><path class="f" d="M53.21709,67.38714,32.677,46.847,71.6176,7.90643S82.74348-3.21946,97.29272,2.7714c6.41878,15.833-5.135,25.67513-5.135,25.67513Z"/><path class="f" d="M17.69984,47.275l3.20083,3.20083,9.31151-5.81969,2.328,2.32775L45.80553,33.7185l-3.97679-3.97679a4.66383,4.66383,0,0,0-6.59565,0Z"/><path class="f" d="M52.78917,82.3643l-3.20083-3.20083L55.408,69.852l-2.32775-2.328L66.34564,54.2586l3.97679,3.97679a4.66383,4.66383,0,0,1,0,6.59565Z"/><rect class="f" x="30.9475" y="56.40809" width="20.57573" height="4.84135" rx="1.81551" ry="1.81551" transform="translate(53.67578 -11.92726) rotate(45)"/><path class="f" d="M39.52369,69.09881c-2.36333,2.36333-10.92171-6.195-8.55838-8.55838a6.05169,6.05169,0,1,1,8.55838,8.55838Z"/><line class="f" x1="71.6176" y1="7.90643" x2="92.1577" y2="28.44653"/><circle class="f" cx="70.76176" cy="29.30237" r="7.86719" transform="translate(0.00574 58.61858) rotate(-45)"/><line class="f" x1="68.19425" y1="37.00491" x2="45.51455" y2="59.6846"/><line class="f" x1="40.37952" y1="54.54958" x2="63.05922" y2="31.86988"/><path class="f" d="M53.21709,67.38714,32.677,46.847,71.6176,7.90643S82.74348-3.21946,97.29272,2.7714c6.41878,15.833-5.135,25.67513-5.135,25.67513Z"/><line class="f" x1="27.50592" y1="72.77414" x2="0.94017" y2="99.33989"/><line class="f" x1="30.30231" y1="75.57054" x2="17.25247" y2="98.87383"/><line class="f" x1="24.70952" y1="69.97775" x2="0.4741" y2="83.02759"/></g></svg>