<svg xmlns="http://www.w3.org/2000/svg" viewBox="0 0 67.81445 90.24831"><defs><style>.a{opacity:0.5;}.b,.c{fill:#00a098;}.c{opacity:0.4;}.d,.e{fill:none;stroke:#afe100;stroke-width:2px;}.d{stroke-miterlimit:10;}.e{stroke-linecap:round;stroke-linejoin:round;}</style></defs><title>fase1</title><g class="a"><path d="M3.43945,35.73524a13.80775,13.80775,0,0,1,1.67773-1.79883,11.99633,11.99633,0,0,1,2.1582-1.54395,11.68422,11.68422,0,0,1,2.68848-1.082,12.89244,12.89244,0,0,1,3.2998-.41406,13.54632,13.54632,0,0,1,4.39355.69922,13.032,13.032,0,0,1,3.85449,2.04395A12.37111,12.37111,0,0,1,24.45215,36.91a11.713,11.713,0,0,1,1.61328,4.3457,11.55142,11.55142,0,0,1-.01367,4.50781,10.4619,10.4619,0,0,1-1.376,3.3291,13.13353,13.13353,0,0,1-2.10645,2.52441q-1.1792,1.08984-2.20508,2.043A11.82016,11.82016,0,0,0,18.67383,55.579a3.06172,3.06172,0,0,0-.53613,2.13672l.54785,5.6416-2.10449.01172-1.1377-5.87793-.02832-.17285a3.69406,3.69406,0,0,1,.36621-2.48047,9.82884,9.82884,0,0,1,1.583-2.07227q.98291-1.00488,2.15625-2.043a14.26091,14.26091,0,0,0,2.10742-2.335,9.7486,9.7486,0,0,0,1.43164-2.98535,8.97239,8.97239,0,0,0,.11426-3.99414,8.816,8.816,0,0,0-1.23047-3.31348,9.25215,9.25215,0,0,0-2.25488-2.46582,9.96575,9.96575,0,0,0-2.94434-1.53223A10.25788,10.25788,0,0,0,13.4834,33.58,9.57,9.57,0,0,0,9.877,34.202a10.24753,10.24753,0,0,0-2.416,1.35547A10.43446,10.43446,0,0,0,6,36.90809c-.34375.4043-.5918.60547-.74219.60645a.91013.91013,0,0,1-.78027-.4082ZM16.91406,77.47938a3.24919,3.24919,0,0,1,.02148-1.23926,2.484,2.484,0,0,1,1.28711-1.71094,2.41936,2.41936,0,0,1,1.13867-.26562,2.9852,2.9852,0,0,1,1.209.25293,3.88413,3.88413,0,0,1,1.06934.68164,4.18106,4.18106,0,0,1,.81641,1.01172,3.62835,3.62835,0,0,1,.44727,1.23633,3.00167,3.00167,0,0,1-.03418,1.25586,2.75655,2.75655,0,0,1-.48145,1.001,2.32272,2.32272,0,0,1-.84375.67676,2.63007,2.63007,0,0,1-1.126.24512,3.278,3.278,0,0,1-2.27148-.89844A3.76856,3.76856,0,0,1,16.91406,77.47938Z" transform="translate(-3.43945)"/></g><path class="b" d="M12.668,26.50672A13.67452,13.67452,0,0,1,14.3457,24.7079,12.002,12.002,0,0,1,16.50293,23.164a11.64917,11.64917,0,0,1,2.6875-1.08105,12.90589,12.90589,0,0,1,3.30078-.41406,13.50146,13.50146,0,0,1,4.39355.69824A13.06134,13.06134,0,0,1,30.74023,24.411a12.415,12.415,0,0,1,2.93945,3.27051A11.705,11.705,0,0,1,35.293,32.02821a11.54871,11.54871,0,0,1-.0127,4.50684,10.52181,10.52181,0,0,1-1.376,3.33008,13.13778,13.13778,0,0,1-2.10742,2.52441q-1.18066,1.08984-2.20605,2.041a11.82019,11.82019,0,0,0-1.68945,1.9209,3.05982,3.05982,0,0,0-.53711,2.13574l.54883,5.64258-2.10449.01074-1.13867-5.87891-.02832-.17285a3.69218,3.69218,0,0,1,.36621-2.47949,9.9227,9.9227,0,0,1,1.584-2.07324q.98145-1.00342,2.15625-2.043a14.17577,14.17577,0,0,0,2.10645-2.335,9.75636,9.75636,0,0,0,1.43262-2.98437,8.95439,8.95439,0,0,0,.11426-3.99316A8.81448,8.81448,0,0,0,31.1709,28.8661,9.26833,9.26833,0,0,0,28.916,26.40028a10.0086,10.0086,0,0,0-2.94531-1.5332A10.283,10.283,0,0,0,22.71,24.35243a9.54184,9.54184,0,0,0-3.60547.62207,10.24753,10.24753,0,0,0-2.416,1.35547,10.49486,10.49486,0,0,0-1.46094,1.34961q-.51562.605-.74219.60645a.91013.91013,0,0,1-.78027-.4082ZM26.1416,68.25087a3.25471,3.25471,0,0,1,.02148-1.24023,2.48332,2.48332,0,0,1,1.28711-1.71,2.41622,2.41622,0,0,1,1.13867-.26465,3.01895,3.01895,0,0,1,1.209.251,3.91333,3.91333,0,0,1,1.06934.68359,4.18594,4.18594,0,0,1,.81543,1.00977,3.64818,3.64818,0,0,1,.44727,1.2373,3.02287,3.02287,0,0,1-.0332,1.25684,2.78965,2.78965,0,0,1-.48242,1.001,2.30971,2.30971,0,0,1-.84375.6748,2.60273,2.60273,0,0,1-1.126.24707,3.28245,3.28245,0,0,1-2.27148-.89844A3.77475,3.77475,0,0,1,26.1416,68.25087Z" transform="translate(-3.43945)"/><path class="c" d="M69.88977,25.67144c2.27362,13.69617-6.33619,24.85641-19.23055,24.92709S25.46878,39.6236,23.19516,25.92743,29.53134,1.071,42.42571,1.00034,67.61615,11.97528,69.88977,25.67144Z" transform="translate(-3.43945)"/><path class="d" d="M69.88977,25.67144c2.27362,13.69617-6.33619,24.85641-19.23055,24.92709S25.46878,39.6236,23.19516,25.92743,29.53134,1.071,42.42571,1.00034,67.61615,11.97528,69.88977,25.67144Z" transform="translate(-3.43945)"/><line class="e" x1="53.8586" y1="89.24831" x2="47.21977" y2="50.59854"/></svg>