<svg xmlns="http://www.w3.org/2000/svg" viewBox="0 0 208.12305 139.20808"><defs><style>.a{opacity:0.3;}.b{fill:#00a098;opacity:0.4;}.c,.d{fill:none;stroke:#afe100;stroke-width:2px;}.c{stroke-miterlimit:10;}.d{stroke-linecap:round;stroke-linejoin:round;}</style></defs><title>fase2</title><path class="a" d="M178.91311,138.36l-154.68393.848a7.28352,7.28352,0,0,1-7.22512-6.09064L.10009,31.28888A7.28352,7.28352,0,0,1,7.24535,22.8127l154.68393-.848a7.28352,7.28352,0,0,1,7.22512,6.09064l16.904,101.82846A7.28352,7.28352,0,0,1,178.91311,138.36Z"/><path class="b" d="M199.87769,117.39538l-154.68393.848a7.28352,7.28352,0,0,1-7.22512-6.09064L21.06468,10.32429a7.28352,7.28352,0,0,1,7.14526-8.47618l154.68393-.848A7.28352,7.28352,0,0,1,190.119,7.09075L207.023,108.9192A7.28352,7.28352,0,0,1,199.87769,117.39538Z"/><path class="c" d="M199.87769,117.39538l-154.68393.848a7.28352,7.28352,0,0,1-7.22512-6.09064L21.06468,10.32429a7.28352,7.28352,0,0,1,7.14526-8.47618l154.68393-.848A7.28352,7.28352,0,0,1,190.119,7.09075L207.023,108.9192A7.28352,7.28352,0,0,1,199.87769,117.39538Z"/><path class="c" d="M182.45573,15.41345c.495,2.98189-1.3795,5.41166-4.18682,5.42705a6.40931,6.40931,0,0,1-5.9794-5.37132c-.495-2.98189,1.3795-5.41166,4.18682-5.42705A6.40931,6.40931,0,0,1,182.45573,15.41345Z"/><line class="d" x1="108.22032" y1="15.79119" x2="120.51766" y2="15.71831"/><line class="d" x1="33.41398" y1="43.85147" x2="52.61683" y2="43.7462"/><line class="d" x1="36.00326" y1="59.44912" x2="55.20611" y2="59.34385"/><line class="d" x1="38.59254" y1="75.04677" x2="57.79538" y2="74.9415"/><line class="d" x1="128.98802" y1="15.6883" x2="141.28536" y2="15.61542"/><line class="d" x1="149.75573" y1="15.58541" x2="162.05307" y2="15.51253"/><polyline class="c" points="24.645 31.89 58.532 31.705 72.873 118.092"/><path class="c" d="M43.21734,24.58315l-7.90705.04335a4.985,4.985,0,0,1-4.65064-4.17769l-1.39423-8.39873a3.395,3.395,0,0,1,3.25641-4.221l7.90705-.04335a4.985,4.985,0,0,1,4.65064,4.17769l1.39423,8.39873A3.395,3.395,0,0,1,43.21734,24.58315Z"/><line class="c" x1="58.53213" y1="31.70466" x2="194.08164" y2="30.96156"/></svg>