<svg xmlns="http://www.w3.org/2000/svg" viewBox="0 0 119.68666 89.02434"><defs><style>.a{isolation:isolate;}.b,.f{opacity:0.4;}.c{opacity:0.5;}.d,.e{mix-blend-mode:soft-light;}.e{opacity:0.3;}.f{fill:#00a098;}.g,.h{fill:none;stroke:#afe100;stroke-width:2px;}.g{stroke-miterlimit:10;}.h{stroke-linecap:round;stroke-linejoin:round;}</style></defs><title>fase3</title><g class="a"><g class="b"><g class="c"><path class="d" d="M15.09072,31.35169,7.112,31.39544a6.05578,6.05578,0,0,1-5.63133-5.05865L.07383,17.862c-.46426-2.79669,1.31013-5.09671,3.9431-5.11114l7.97869-.04374A6.05578,6.05578,0,0,1,17.627,17.76572l1.40686,8.47483C19.49808,29.03724,17.72369,31.33726,15.09072,31.35169Z"/><path class="e" d="M15.09072,31.35169,7.112,31.39544a6.05578,6.05578,0,0,1-5.63133-5.05865L.07383,17.862c-.46426-2.79669,1.31013-5.09671,3.9431-5.11114l7.97869-.04374A6.05578,6.05578,0,0,1,17.627,17.76572l1.40686,8.47483C19.49808,29.03724,17.72369,31.33726,15.09072,31.35169Z"/></g><g class="c"><path class="d" d="M19.874,60.16611l-7.97869.04374A6.05578,6.05578,0,0,1,6.264,55.1512L4.85716,46.67637c-.46426-2.79669,1.31013-5.09671,3.9431-5.11114l7.97869-.04374a6.05578,6.05578,0,0,1,5.63133,5.05865L23.81715,55.055C24.28141,57.85166,22.507,60.15167,19.874,60.16611Z"/><path class="e" d="M19.874,60.16611l-7.97869.04374A6.05578,6.05578,0,0,1,6.264,55.1512L4.85716,46.67637c-.46426-2.79669,1.31013-5.09671,3.9431-5.11114l7.97869-.04374a6.05578,6.05578,0,0,1,5.63133,5.05865L23.81715,55.055C24.28141,57.85166,22.507,60.15167,19.874,60.16611Z"/></g><g class="c"><path class="d" d="M24.65738,88.98053l-7.97869.04374a6.05578,6.05578,0,0,1-5.63133-5.05865L9.64049,75.49079c-.46426-2.79669,1.31013-5.09671,3.9431-5.11114l7.97869-.04374a6.05578,6.05578,0,0,1,5.63133,5.05865l1.40686,8.47483C29.06474,86.66608,27.29035,88.96609,24.65738,88.98053Z"/><path class="e" d="M24.65738,88.98053l-7.97869.04374a6.05578,6.05578,0,0,1-5.63133-5.05865L9.64049,75.49079c-.46426-2.79669,1.31013-5.09671,3.9431-5.11114l7.97869-.04374a6.05578,6.05578,0,0,1,5.63133,5.05865l1.40686,8.47483C29.06474,86.66608,27.29035,88.96609,24.65738,88.98053Z"/></g><path class="f" d="M57.35718,43.65652c.62159,3.74442-1.73226,6.79553-5.25747,6.81486s-6.88685-3.00045-7.50844-6.74487,1.73226-6.79553,5.25747-6.81486S56.73559,39.9121,57.35718,43.65652Z"/><path class="f" d="M76.506,43.55153c.62159,3.74442-1.73226,6.79553-5.25747,6.81486s-6.88685-3.00045-7.50844-6.74487,1.73226-6.79553,5.25747-6.81486S75.88445,39.80711,76.506,43.55153Z"/><path class="f" d="M95.65491,43.44654c.62159,3.74442-1.73226,6.79553-5.25747,6.81486s-6.88685-3.00045-7.50844-6.74487,1.73226-6.79553,5.25747-6.81486S95.03332,39.70213,95.65491,43.44654Z"/><path class="f" d="M52.57385,14.8421c.62159,3.74442-1.73226,6.79553-5.25747,6.81486s-6.88685-3.00045-7.50844-6.74487,1.73226-6.79553,5.25747-6.81486S51.95226,11.09768,52.57385,14.8421Z"/><path class="f" d="M71.72271,14.73711c.62159,3.74442-1.73226,6.79553-5.25747,6.81486s-6.88685-3.00045-7.50844-6.74487,1.73226-6.79553,5.25747-6.81486S71.10112,10.9927,71.72271,14.73711Z"/><path class="f" d="M62.14051,72.47093c.62159,3.74442-1.73226,6.79553-5.25747,6.81486s-6.88685-3.00045-7.50844-6.74487,1.73226-6.79553,5.25747-6.81486S61.51892,68.72652,62.14051,72.47093Z"/><path class="f" d="M81.28938,72.36595c.62159,3.74442-1.73226,6.79553-5.25747,6.81486s-6.88685-3.00045-7.50844-6.74487,1.73226-6.79553,5.25747-6.81486S80.66778,68.62153,81.28938,72.36595Z"/><path class="f" d="M100.43824,72.261c.62159,3.74442-1.73226,6.79553-5.25747,6.81486s-6.88685-3.00045-7.50844-6.74487,1.73226-6.79553,5.25747-6.81486S99.81665,68.51655,100.43824,72.261Z"/><path class="f" d="M119.58711,72.156c.62159,3.74442-1.73226,6.79553-5.25747,6.81486s-6.88685-3.00045-7.50844-6.74487,1.73226-6.79553,5.25747-6.81486S118.96552,68.41156,119.58711,72.156Z"/><path class="g" d="M22.07678,24.36563l-7.97869.04374a6.05578,6.05578,0,0,1-5.63133-5.05865L7.05989,10.8759C6.59562,8.0792,8.37,5.77919,11.003,5.76475L18.98168,5.721A6.05578,6.05578,0,0,1,24.613,10.77966l1.40686,8.47483C26.48414,22.05118,24.70975,24.3512,22.07678,24.36563Z"/><path class="g" d="M26.86011,53.18005l-7.97869.04374a6.05578,6.05578,0,0,1-5.63133-5.05865l-1.40686-8.47483c-.46426-2.79669,1.31013-5.09671,3.9431-5.11114l7.97869-.04374a6.05578,6.05578,0,0,1,5.63133,5.05865l1.40686,8.47483C31.26747,50.8656,29.49308,53.16562,26.86011,53.18005Z"/><path class="g" d="M31.64344,81.99447l-7.97869.04374a6.05578,6.05578,0,0,1-5.63133-5.05865l-1.40686-8.47483c-.46426-2.79669,1.31013-5.09671,3.9431-5.11114l7.97869-.04374a6.05578,6.05578,0,0,1,5.63133,5.05865l1.40686,8.47483C36.0508,79.68,34.27641,81.98,31.64344,81.99447Z"/><path class="h" d="M11.63561,13.10917l6.05458,6.05458S21.88183,3.79442,32.12805,1"/><path class="h" d="M16.293,41.98488l6.05458,6.05458s4.19164-15.36933,14.43785-18.16375"/><path class="h" d="M20.95036,70.86059l6.05458,6.05458S31.19658,61.54584,41.4428,58.75142"/></g></g></svg>