<svg xmlns="http://www.w3.org/2000/svg" viewBox="0 0 538 147.03249"><defs><style>.a{fill:#fff;}</style></defs><title>logo</title><path class="a" d="M386.11961,127.5218v14.86279H384.657V127.5218H380.7797v-1.3941h9.21652v1.3941Z"/><path class="a" d="M398.45421,142.38459l-.77129-1.17911a3.4994,3.4994,0,0,1-1.19053,1.02592,3.27715,3.27715,0,0,1-1.56408.3796h-.35138A3.346,3.346,0,0,1,393.25,142.345a3.40066,3.40066,0,0,1-1.81939-1.81939,3.346,3.346,0,0,1-.26605-1.32692V130.7756h1.3941v8.503a1.97241,1.97241,0,0,0,.15856.78741,2.005,2.005,0,0,0,1.07161,1.07161,1.96184,1.96184,0,0,0,.78809.15856h.92918a1.96649,1.96649,0,0,0,.78809-.15856,2.011,2.011,0,0,0,1.07161-1.07161,1.97241,1.97241,0,0,0,.15856-.78741v-8.503h1.3941v11.609Z"/><path class="a" d="M414.33756,142.38459l-.77129-1.15626a3.6021,3.6021,0,0,1-1.19053,1.00308,3.27715,3.27715,0,0,1-1.56408.3796h-.35138a3.346,3.346,0,0,1-1.32692-.26605,3.40066,3.40066,0,0,1-1.81939-1.81939,3.346,3.346,0,0,1-.26605-1.32692v-.11287a3.346,3.346,0,0,1,.26605-1.32692,3.40066,3.40066,0,0,1,1.81939-1.81939,3.346,3.346,0,0,1,1.32692-.26605h2.94743v-1.79184a1.97241,1.97241,0,0,0-.15856-.78741,2.011,2.011,0,0,0-1.07161-1.07161,1.978,1.978,0,0,0-.78809-.15856h-.8163a1.97241,1.97241,0,0,0-.78741.15856,2.005,2.005,0,0,0-1.07161,1.07161,1.96094,1.96094,0,0,0-.15856.78741v.41991l-1.39477-.22709v-.11287a3.33485,3.33485,0,0,1,.26673-1.32692,3.40066,3.40066,0,0,1,1.81939-1.81939,3.34564,3.34564,0,0,1,1.32624-.26673h.8163a3.34651,3.34651,0,0,1,1.32692.26673,3.40658,3.40658,0,0,1,1.81939,1.81939,3.346,3.346,0,0,1,.26605,1.32692v8.42306Zm-.92985-5.62343h-2.94743a1.9623,1.9623,0,0,0-.78809.15923,1.98615,1.98615,0,0,0-.641.436,2.11718,2.11718,0,0,0-.43066.64633,1.978,1.978,0,0,0-.15856.78809v.48777a1.97241,1.97241,0,0,0,.15856.78741,2.005,2.005,0,0,0,1.07161,1.07161,1.96184,1.96184,0,0,0,.78809.15856h.92918a1.96649,1.96649,0,0,0,.78809-.15856,2.011,2.011,0,0,0,1.07161-1.07161,1.97241,1.97241,0,0,0,.15856-.78741Z"/><path class="a" d="M418.05493,142.38459V126.1277h1.39477v16.25689Z"/><path class="a" d="M423.05556,127.98672v-1.859h1.62119v1.859Zm.11287,14.39787v-11.609h1.39477v11.609Z"/><path class="a" d="M435.10663,142.38459l-.77129-1.15626a3.6021,3.6021,0,0,1-1.19053,1.00308,3.27715,3.27715,0,0,1-1.56408.3796h-.35138a3.346,3.346,0,0,1-1.32692-.26605,3.40066,3.40066,0,0,1-1.81939-1.81939,3.346,3.346,0,0,1-.26605-1.32692v-.11287a3.346,3.346,0,0,1,.26605-1.32692,3.40066,3.40066,0,0,1,1.81939-1.81939,3.346,3.346,0,0,1,1.32692-.26605h2.94743v-1.79184a1.97241,1.97241,0,0,0-.15856-.78741,2.011,2.011,0,0,0-1.07161-1.07161,1.978,1.978,0,0,0-.78809-.15856h-.8163a1.97241,1.97241,0,0,0-.78741.15856,2.005,2.005,0,0,0-1.07161,1.07161,1.96094,1.96094,0,0,0-.15856.78741v.41991l-1.39477-.22709v-.11287a3.33485,3.33485,0,0,1,.26673-1.32692,3.40066,3.40066,0,0,1,1.81939-1.81939,3.34564,3.34564,0,0,1,1.32624-.26673h.8163a3.34651,3.34651,0,0,1,1.32692.26673,3.40658,3.40658,0,0,1,1.81939,1.81939,3.346,3.346,0,0,1,.26605,1.32692v8.42306Zm-.92985-5.62343h-2.94743a1.9623,1.9623,0,0,0-.78809.15923,1.98615,1.98615,0,0,0-.641.436,2.11718,2.11718,0,0,0-.43066.64633,1.978,1.978,0,0,0-.15856.78809v.48777a1.97241,1.97241,0,0,0,.15856.78741,2.005,2.005,0,0,0,1.07161,1.07161,1.96184,1.96184,0,0,0,.78809.15856h.92918a1.96649,1.96649,0,0,0,.78809-.15856,2.011,2.011,0,0,0,1.07161-1.07161,1.97241,1.97241,0,0,0,.15856-.78741Z"/><path class="a" d="M445.65007,142.38459l-.77129-1.17911a3.4994,3.4994,0,0,1-1.19053,1.02592,3.27715,3.27715,0,0,1-1.56408.3796h-.35138a3.346,3.346,0,0,1-1.32692-.26605,3.40066,3.40066,0,0,1-1.81939-1.81939,3.346,3.346,0,0,1-.26605-1.32692v-5.23712a3.346,3.346,0,0,1,.26605-1.32692,3.40066,3.40066,0,0,1,1.81939-1.81939,3.34651,3.34651,0,0,1,1.32692-.26673h.35138a3.34372,3.34372,0,0,1,2.59605,1.20195V126.1277h1.3941v16.25689Zm-.92985-8.503a1.97241,1.97241,0,0,0-.15856-.78741,2.011,2.011,0,0,0-1.07161-1.07161,1.978,1.978,0,0,0-.78809-.15856h-.92918a1.9733,1.9733,0,0,0-.78809.15856,2.005,2.005,0,0,0-1.07161,1.07161,1.97241,1.97241,0,0,0-.15856.78741v5.397a1.97241,1.97241,0,0,0,.15856.78741,2.005,2.005,0,0,0,1.07161,1.07161,1.96184,1.96184,0,0,0,.78809.15856h.92918a1.96649,1.96649,0,0,0,.78809-.15856,2.011,2.011,0,0,0,1.07161-1.07161,1.97241,1.97241,0,0,0,.15856-.78741Z"/><path class="a" d="M456.3917,140.52557a3.40658,3.40658,0,0,1-1.81939,1.81939,3.346,3.346,0,0,1-1.32692.26605h-.92918a3.346,3.346,0,0,1-1.32692-.26605,3.40066,3.40066,0,0,1-1.81939-1.81939,3.346,3.346,0,0,1-.26605-1.32692v-5.23712a3.346,3.346,0,0,1,.26605-1.32692,3.40066,3.40066,0,0,1,1.81939-1.81939,3.34651,3.34651,0,0,1,1.32692-.26673h.92918a3.34651,3.34651,0,0,1,1.32692.26673,3.40658,3.40658,0,0,1,1.81939,1.81939,3.346,3.346,0,0,1,.26605,1.32692v5.23712A3.346,3.346,0,0,1,456.3917,140.52557Zm-1.128-6.644a1.97241,1.97241,0,0,0-.15856-.78741,2.011,2.011,0,0,0-1.07161-1.07161,1.978,1.978,0,0,0-.78809-.15856h-.92918a1.9733,1.9733,0,0,0-.78809.15856,2.005,2.005,0,0,0-1.07161,1.07161,1.97241,1.97241,0,0,0-.15856.78741v5.397a1.97241,1.97241,0,0,0,.15856.78741,2.005,2.005,0,0,0,1.07161,1.07161,1.96184,1.96184,0,0,0,.78809.15856h.92918a1.96649,1.96649,0,0,0,.78809-.15856,2.011,2.011,0,0,0,1.07161-1.07161,1.97241,1.97241,0,0,0,.15856-.78741Z"/><path class="a" d="M465.25079,142.38459V126.1277h1.39477v16.25689Z"/><path class="a" d="M477.16077,140.52557a3.40658,3.40658,0,0,1-1.81939,1.81939,3.346,3.346,0,0,1-1.32692.26605h-.92918a3.346,3.346,0,0,1-1.32692-.26605,3.40066,3.40066,0,0,1-1.81939-1.81939,3.346,3.346,0,0,1-.26605-1.32692v-5.23712a3.346,3.346,0,0,1,.26605-1.32692,3.40066,3.40066,0,0,1,1.81939-1.81939,3.34651,3.34651,0,0,1,1.32692-.26673h.92918a3.34651,3.34651,0,0,1,1.32692.26673,3.40658,3.40658,0,0,1,1.81939,1.81939,3.346,3.346,0,0,1,.26605,1.32692v5.23712A3.346,3.346,0,0,1,477.16077,140.52557Zm-1.128-6.644a1.97241,1.97241,0,0,0-.15856-.78741,2.011,2.011,0,0,0-1.07161-1.07161,1.978,1.978,0,0,0-.78809-.15856h-.92918a1.9733,1.9733,0,0,0-.78809.15856,2.005,2.005,0,0,0-1.07161,1.07161,1.97241,1.97241,0,0,0-.15856.78741v5.397a1.97241,1.97241,0,0,0,.15856.78741,2.005,2.005,0,0,0,1.07161,1.07161,1.96184,1.96184,0,0,0,.78809.15856h.92918a1.96649,1.96649,0,0,0,.78809-.15856,2.011,2.011,0,0,0,1.07161-1.07161,1.97241,1.97241,0,0,0,.15856-.78741Z"/><path class="a" d="M487.81775,145.1392a3.02133,3.02133,0,0,1-.73165,1.00913,3.34607,3.34607,0,0,1-1.08841.6517,3.762,3.762,0,0,1-1.32624.23246H484.093a3.762,3.762,0,0,1-1.32624-.23246,3.34607,3.34607,0,0,1-1.08841-.6517,3.01031,3.01031,0,0,1-.731-1.00913,3.09421,3.09421,0,0,1-.26673-1.292v-.04569a3.05551,3.05551,0,0,1,.24993-1.247,3.09943,3.09943,0,0,1,.67992-.98628,2.46663,2.46663,0,0,1-1.19053-2.13113,2.53137,2.53137,0,0,1,.26068-1.13947,2.29354,2.29354,0,0,1,.71418-.85594,3.49337,3.49337,0,0,1-.86132-1.14484,3.36908,3.36908,0,0,1-.31712-1.46263v-.87274a3.346,3.346,0,0,1,.26605-1.32692,3.40066,3.40066,0,0,1,1.81939-1.81939,3.34651,3.34651,0,0,1,1.32692-.26673h.5778a3.31116,3.31116,0,0,1,1.57013.38027,3.4863,3.4863,0,0,1,1.1959,1.02592l.75987-1.17911h.46492v4.05868a3.33161,3.33161,0,0,1-.26673,1.32624,3.40066,3.40066,0,0,1-1.81939,1.81939,3.334,3.334,0,0,1-1.32624.26673h-2.01825a1.10583,1.10583,0,0,0-.4535.09608,1.32284,1.32284,0,0,0-.3796.25531,1.10916,1.10916,0,0,0-.25531.3796,1.20259,1.20259,0,0,0-.0907.45955,1.15805,1.15805,0,0,0,.0907.4535,1.19057,1.19057,0,0,0,.6349.6349,1.15805,1.15805,0,0,0,.4535.0907h1.90471a3.762,3.762,0,0,1,1.32624.23246,3.34607,3.34607,0,0,1,1.08841.6517,3.02133,3.02133,0,0,1,.73165,1.00913,3.10217,3.10217,0,0,1,.26605,1.292v.04569A3.10439,3.10439,0,0,1,487.81775,145.1392ZM486.814,133.88159a1.98975,1.98975,0,0,0-.59526-1.42837,2.106,2.106,0,0,0-.64565-.43066,1.978,1.978,0,0,0-.78809-.15856h-1.15626a1.9733,1.9733,0,0,0-.78809.15856,2.005,2.005,0,0,0-1.07161,1.07161,1.97241,1.97241,0,0,0-.15856.78741v1.032a1.978,1.978,0,0,0,.15856.78809,2.00678,2.00678,0,0,0,1.07161,1.07094,1.9623,1.9623,0,0,0,.78809.15923H484.785a1.967,1.967,0,0,0,.78809-.15923,2.09405,2.09405,0,0,0,.64565-.43066,1.98668,1.98668,0,0,0,.59526-1.42837Zm-.05644,9.85209a1.74212,1.74212,0,0,0-.15856-.75382,1.6324,1.6324,0,0,0-.43133-.561,1.97453,1.97453,0,0,0-.64028-.35138,2.43988,2.43988,0,0,0-.78809-.125h-.71418a2.43988,2.43988,0,0,0-.78809.125,1.97453,1.97453,0,0,0-.64028.35138,1.62252,1.62252,0,0,0-.43066.561,1.73246,1.73246,0,0,0-.15856.75382v.1814a1.66457,1.66457,0,0,0,.58922,1.30945,1.92458,1.92458,0,0,0,.64028.35676,2.43988,2.43988,0,0,0,.78809.125h.71418a2.43988,2.43988,0,0,0,.78809-.125,1.92457,1.92457,0,0,0,.64028-.35676,1.66228,1.66228,0,0,0,.58989-1.30945Z"/><path class="a" d="M492.02558,128.91657h-1.04272l1.859-2.78887h2.32395Zm-.11354,13.468v-11.609h1.39477v11.609Z"/><path class="a" d="M503.8536,139.43716a2.90891,2.90891,0,0,1-.28352,1.2866,3.09188,3.09188,0,0,1-.77062,1.00308,3.58972,3.58972,0,0,1-1.128.65237,3.92152,3.92152,0,0,1-1.34371.23179h-.92985a3.46575,3.46575,0,0,1-1.343-.26605,3.57463,3.57463,0,0,1-1.12267-.731,3.61732,3.61732,0,0,1-.77062-1.08841,3.11556,3.11556,0,0,1-.2889-1.32692v-.46425l1.3941-.22709v.77129a1.79836,1.79836,0,0,0,.176.78741,2.07216,2.07216,0,0,0,.4703.641,2.26869,2.26869,0,0,0,.67992.43066,2.08905,2.08905,0,0,0,.80488.15856h.92985a2.59255,2.59255,0,0,0,.80488-.125,2.22039,2.22039,0,0,0,.686-.35676,1.74333,1.74333,0,0,0,.47635-.561,1.566,1.566,0,0,0,.17535-.74845,1.76775,1.76775,0,0,0-.2721-1.02055,2.26608,2.26608,0,0,0-.71956-.66312,4.71129,4.71129,0,0,0-1.02055-.44208q-.57242-.17535-1.17306-.35138-.60165-.17535-1.17373-.40244a3.79087,3.79087,0,0,1-1.02055-.59526,2.73511,2.73511,0,0,1-.71956-.9238,3.133,3.133,0,0,1-.2721-1.38335,3.0103,3.0103,0,0,1,.2721-1.2866,3.09116,3.09116,0,0,1,.737-1.00308,3.37386,3.37386,0,0,1,1.08236-.65237,3.72853,3.72853,0,0,1,1.32087-.23246h.8163a3.34564,3.34564,0,0,1,1.32624.26673,3.40483,3.40483,0,0,1,1.82006,1.81939,3.346,3.346,0,0,1,.26605,1.32692v.045l-1.3941.22709v-.35205a1.96141,1.96141,0,0,0-.15923-.78741,2.00678,2.00678,0,0,0-1.07094-1.07161,1.978,1.978,0,0,0-.78809-.15856h-.8163a2.45807,2.45807,0,0,0-.78809.12429,1.93781,1.93781,0,0,0-.64028.35743,1.66457,1.66457,0,0,0-.58922,1.30945,1.64582,1.64582,0,0,0,.27143.98091,2.27762,2.27762,0,0,0,.72023.64028,4.84587,4.84587,0,0,0,1.02055.43671q.57242.17535,1.16769.3628.59459.18644,1.16769.42461a3.93262,3.93262,0,0,1,1.01988.61273,2.77273,2.77273,0,0,1,.72023.93522A3.17,3.17,0,0,1,503.8536,139.43716Z"/><path class="a" d="M510.75826,142.38459a3.035,3.035,0,0,1-2.17144-.89558,3.2095,3.2095,0,0,1-.65775-.97486,2.92789,2.92789,0,0,1-.24321-1.19053v-7.22178h-2.08611V130.7756h2.08611v-2.78887l1.3941-.22709v3.016h2.94743v1.32624H509.08v7.28964a1.62538,1.62538,0,0,0,.13034.65237,1.67583,1.67583,0,0,0,.89021.88416,1.66561,1.66561,0,0,0,.65775.13034h1.26914v1.32624Z"/><path class="a" d="M514.94124,127.98672v-1.859h1.62119v1.859Zm.11287,14.39787v-11.609h1.39477v11.609Z"/><path class="a" d="M527.19051,140.52557a3.40659,3.40659,0,0,1-1.81939,1.81939,3.346,3.346,0,0,1-1.32692.26605H523.115a3.346,3.346,0,0,1-1.32692-.26605,3.40066,3.40066,0,0,1-1.81939-1.81939,3.346,3.346,0,0,1-.26605-1.32692v-5.23712a3.346,3.346,0,0,1,.26605-1.32692,3.40066,3.40066,0,0,1,1.81939-1.81939,3.34651,3.34651,0,0,1,1.32692-.26673h.92918a3.34651,3.34651,0,0,1,1.32692.26673,3.40659,3.40659,0,0,1,1.81939,1.81939,3.346,3.346,0,0,1,.26605,1.32692v.46425l-1.3941.22709v-.77129a1.97241,1.97241,0,0,0-.15856-.78741,2.011,2.011,0,0,0-1.07161-1.07161,1.978,1.978,0,0,0-.78809-.15856H523.115a1.9733,1.9733,0,0,0-.78809.15856,2.005,2.005,0,0,0-1.07161,1.07161,1.97241,1.97241,0,0,0-.15856.78741v5.397a1.97241,1.97241,0,0,0,.15856.78741,2.005,2.005,0,0,0,1.07161,1.07161,1.96184,1.96184,0,0,0,.78809.15856h.92918a1.96649,1.96649,0,0,0,.78809-.15856,2.011,2.011,0,0,0,1.07161-1.07161,1.97241,1.97241,0,0,0,.15856-.78741v-.77129l1.3941.22709v.46425A3.346,3.346,0,0,1,527.19051,140.52557Z"/><path class="a" d="M537.73395,140.52557a3.40658,3.40658,0,0,1-1.81939,1.81939,3.346,3.346,0,0,1-1.32692.26605h-.92918a3.346,3.346,0,0,1-1.32692-.26605,3.40066,3.40066,0,0,1-1.81939-1.81939,3.346,3.346,0,0,1-.26605-1.32692v-5.23712a3.346,3.346,0,0,1,.26605-1.32692,3.40066,3.40066,0,0,1,1.81939-1.81939,3.34651,3.34651,0,0,1,1.32692-.26673h.92918a3.34651,3.34651,0,0,1,1.32692.26673,3.40658,3.40658,0,0,1,1.81939,1.81939A3.346,3.346,0,0,1,538,133.96154v5.23712A3.346,3.346,0,0,1,537.73395,140.52557Zm-1.128-6.644a1.97241,1.97241,0,0,0-.15856-.78741,2.011,2.011,0,0,0-1.07161-1.07161,1.978,1.978,0,0,0-.78809-.15856h-.92918a1.9733,1.9733,0,0,0-.78809.15856,2.005,2.005,0,0,0-1.07161,1.07161,1.97241,1.97241,0,0,0-.15856.78741v5.397a1.97241,1.97241,0,0,0,.15856.78741,2.005,2.005,0,0,0,1.07161,1.07161,1.96184,1.96184,0,0,0,.78809.15856h.92918a1.96649,1.96649,0,0,0,.78809-.15856,2.011,2.011,0,0,0,1.07161-1.07161,1.97241,1.97241,0,0,0,.15856-.78741Z"/><path class="a" d="M108.49257,139.96226H39.32848A39.37351,39.37351,0,0,1,0,100.633V7.67389L18.077,25.91278V100.633a21.276,21.276,0,0,0,21.2515,21.25227h69.16409c12.78559,0,17.32249-11.44855,17.32249-21.25227V33.81144A15.752,15.752,0,0,0,110.0806,18.077h-38.135A15.752,15.752,0,0,0,56.21117,33.81144V63.83279L71.94564,79.56726,87.6801,63.83279v-28.269l18.077,18.017v17.74L71.94564,105.1323,38.1342,71.32086V33.81144A33.85008,33.85008,0,0,1,71.94564,0h38.135A33.85008,33.85008,0,0,1,143.892,33.81144V100.633c0,10.47148-3.18143,20.114-8.95867,27.15308A33.49457,33.49457,0,0,1,108.49257,139.96226Z"/><path class="a" d="M204.41822,54.32326c2.02244-1.88753,5.48388-2.84455,10.28824-2.84455a92.77492,92.77492,0,0,1,15.27435,1.80381l1.48716.27005.04035-1.51089.22859-8.55152.03153-1.17833-1.17-.14314c-.56535-.06916-2.543-.38352-6.046-.96113a61.11459,61.11459,0,0,0-9.846-.8722c-9.05634,0-15.65573,2.00748-19.61487,5.96667S189.125,56.43835,189.125,64.66214V96.01641c0,8.22553,2.00752,14.40314,5.96674,18.36122,3.95788,3.959,10.55731,5.96651,19.61472,5.96651a60.99278,60.99278,0,0,0,9.84613-.8733c4.24522-.69986,5.63319-.90915,6.04994-.96153l1.165-.1463-.03058-1.17366-.22859-8.77925-.0394-1.5124-1.4885.27069a92.51819,92.51819,0,0,1-15.274,1.80381c-4.88277,0-8.3636-.93779-10.34576-2.78726-1.95866-1.82494-2.95145-5.05419-2.95145-9.59859v-32.608C201.40925,59.43522,202.42161,56.18674,204.41822,54.32326Z"/><path class="a" d="M260.70967,59.376a113.21128,113.21128,0,0,0-15.59544,1.72611l-1.09208.17423V72.24415l1.51663-.26143a96.45092,96.45092,0,0,1,15.17089-1.69106c2.75118,0,4.76776.60515,5.99377,1.79859,1.215,1.18442,1.83135,3.25054,1.83135,6.14034v4.69971a59.97115,59.97115,0,0,0-10.44736-1.20777c-5.56736,0-10.08948,1.63718-13.44082,4.86611a16.40734,16.40734,0,0,0-5.0714,12.27855v3.19222c0,5.54129,1.42932,10.00743,4.24827,13.27442a14.51953,14.51953,0,0,0,11.52793,5.01028c4.99078,0,9.56642-2.53548,13.63958-7.547v6.17848H280.819V79.02809c0-6.71638-1.64719-11.7276-4.89583-14.89451C272.68244,60.97657,267.564,59.376,260.70967,59.376Zm7.82512,33.06v7.34463a24.76163,24.76163,0,0,1-5.51356,6.92155,8.87121,8.87121,0,0,1-5.50378,2.38388,4.76639,4.76639,0,0,1-3.89418-1.91364,9.03326,9.03326,0,0,1-1.65-5.79773v-1.25374c0-2.70671.69642-4.71934,2.129-6.15277,1.41159-1.41167,3.55818-2.12752,6.37986-2.12752A51.9971,51.9971,0,0,1,268.53478,92.436Z"/><path class="a" d="M316.49128,59.376a16.11263,16.11263,0,0,0-8.97714,2.72119,23.378,23.378,0,0,0-4.89,4.378V60.74347H290.90982v58.23211H303.194V79.8411c2.86919-4.73667,6.58839-7.04095,11.35971-7.04095a22.3652,22.3652,0,0,1,4.19221.31626l1.55014.30946V59.88568l-.9844-.244A11.99556,11.99556,0,0,0,316.49128,59.376Z"/><path class="a" d="M371.38487,61.37323l-.3635-.73167-.817.01234-13.31636.201a28.27982,28.27982,0,0,0-9.33415-1.47893c-6.70324,0-11.91656,1.75278-15.49523,5.20968-3.59093,3.46877-5.41168,8.1362-5.41168,13.87253v2.5085a35.50312,35.50312,0,0,0,.895,8.58507,14.98,14.98,0,0,0,2.22713,4.99991,13.69515,13.69515,0,0,0-3.13422,3.80734,11.40522,11.40522,0,0,0-1.47022,5.5242V106.164a11.07674,11.07674,0,0,0,3.24856,8.346c2.11731,2.03423,5.1929,3.19072,9.14093,3.437l17.09664,1.13956A4.47934,4.47934,0,0,1,357.85,120.288a4.4068,4.4068,0,0,1,1.06257,3.20567v.91231a7.19471,7.19471,0,0,1-.75841,3.73921c-.31326.478-1.12674,1.15863-3.2139,1.67128a40.826,40.826,0,0,1-8.86874.70374c-4.77378,0-10.69684-1.16654-17.60478-3.46718l-1.63947-.546-.06559,1.72675-.34237,9.00665-.03877,1.02.98242.27694a85.44806,85.44806,0,0,0,9.55206,2.08439,56.90256,56.90256,0,0,0,8.81414.81412c6.55694,0,11.691-.55625,15.25959-1.65332,3.74689-1.15444,6.38516-2.91141,7.84225-5.22226a16.10669,16.10669,0,0,0,2.13725-8.672V121.67a13.59512,13.59512,0,0,0-3.59742-9.60745,13.99876,13.99876,0,0,0-9.32893-4.34017l-17.00564-1.25516c-2.646-.18246-3.51363-.63941-3.76414-.82741a1.81533,1.81533,0,0,1-.62176-1.64185v-.68483a4.40011,4.40011,0,0,1,1.53954-3.23471,37.504,37.504,0,0,0,9.364.9965c6.48319,0,11.623-1.833,15.27684-5.44816C366.49019,92.00928,368.346,87.192,368.346,81.309v-2.5085a21.03713,21.03713,0,0,0-1.27075-7.20679l7.35436.17985,2.14935.05254-.95678-1.92543ZM338.93123,78.23059c0-2.69484.708-4.682,2.16447-6.075,1.45258-1.38841,3.62551-2.09254,6.45819-2.09254a23.62557,23.62557,0,0,1,4.48434.4325,21.87562,21.87562,0,0,1,2.93839.754,22.50872,22.50872,0,0,1,1.08615,7.32239v3.42082c0,2.77254-.72684,4.81579-2.22207,6.24637-1.49175,1.4256-3.83749,2.14872-6.97155,2.14872a16.12715,16.12715,0,0,1-5.35036-.65523,3.13654,3.13654,0,0,1-1.92836-1.97647,18.13155,18.13155,0,0,1-.65919-5.76339Z"/><path class="a" d="M403.20542,59.376c-7.1101,0-12.5145,1.96365-16.063,5.83627-3.517,3.8416-5.3,9.29546-5.3,16.2106V98.29727c0,6.91719,1.78316,12.37121,5.29988,16.21044,3.5467,3.8727,8.95111,5.83643,16.06319,5.83643s12.51648-1.96373,16.06326-5.83658c3.51671-3.83915,5.29988-9.29308,5.29988-16.21028V81.42282c0-6.91506-1.78308-12.369-5.2998-16.21012C415.71992,61.3396,410.31552,59.376,403.20542,59.376ZM394.1266,80.62421c0-3.45539.8104-6.11938,2.40873-7.918a8.38678,8.38678,0,0,1,6.67009-2.64317,8.481,8.481,0,0,1,6.67871,2.59633c1.59239,1.7595,2.40018,4.40125,2.40018,7.851V99.09485c0,3.45531-.8104,6.1193-2.40873,7.918a9.7377,9.7377,0,0,1-13.34049-.00024c-1.59809-1.79836-2.40849-4.46234-2.40849-7.91773Z"/><polygon class="a" points="434.63 41.704 433.333 41.704 433.333 43 433.333 117.679 433.333 118.976 434.63 118.976 444.32 118.976 445.617 118.976 445.617 117.679 445.617 85.341 466.667 85.341 467.963 85.341 467.963 84.045 467.963 75.38 467.963 74.083 466.667 74.083 445.617 74.083 445.617 53.076 471.894 53.076 473.19 53.076 473.19 51.779 473.19 43 473.19 41.704 471.894 41.704 434.63 41.704"/><polygon class="a" points="483.066 60.743 481.769 60.743 481.769 62.04 481.769 117.679 481.769 118.976 483.066 118.976 492.757 118.976 494.054 118.976 494.054 117.679 494.054 62.04 494.054 60.743 492.757 60.743 483.066 60.743"/><path class="a" d="M493.41246,42.28113c-.98076-.81143-3.53294-.98178-5.50133-.98178s-4.52073.17044-5.501.98218a6.00242,6.00242,0,0,0-2.12206,4.8745v3.307a5.82981,5.82981,0,0,0,2.14476,4.83541c.9734.77313,3.51664.93581,5.47831.93581s4.50467-.1626,5.48076-.93716a5.83166,5.83166,0,0,0,2.14405-4.83407V47.156A6.00563,6.00563,0,0,0,493.41246,42.28113Z"/><polygon class="a" points="506.321 41.54 504.108 39.327 504.108 42.457 504.108 117.679 504.108 118.976 505.405 118.976 515.096 118.976 516.393 118.976 516.393 117.679 516.393 52.149 516.393 51.612 516.013 51.232 506.321 41.54"/><polygon class="a" points="537.62 51.409 527.929 41.717 525.716 39.504 525.716 42.634 525.716 117.679 525.716 118.976 527.012 118.976 536.704 118.976 538 118.976 538 117.679 538 52.325 538 51.788 537.62 51.409"/></svg>