<svg xmlns="http://www.w3.org/2000/svg" viewBox="0 0 107.49916 96.85774"><defs><style>.a,.d{fill:#00a098;}.a{opacity:0.4;}.b,.c{fill:none;stroke-miterlimit:10;}.b{stroke:#afe100;stroke-linecap:round;}.c{stroke:#00a098;}.e{fill:#afe100;}</style></defs><title>opalma2</title><polygon class="a" points="100.813 64.411 11.588 64.9 5.602 28.844 94.828 28.355 100.813 64.411"/><line class="b" x1="26.43956" y1="0.79883" x2="30.51518" y2="24.13657"/><line class="b" x1="12.45142" y1="4.89191" x2="27.11884" y2="4.68845"/><line class="b" x1="14.61208" y1="16.55907" x2="23.52479" y2="4.80362"/><line class="b" x1="18.9582" y1="20.39783" x2="27.87091" y2="8.64238"/><line class="b" x1="15.1685" y1="20.4504" x2="29.83591" y2="20.24694"/><line class="b" x1="15.52256" y1="24.04789" x2="11.77215" y2="1.00229"/><path class="b" d="M11.17042.901,26.97112.8144a3.84089,3.84089,0,0,1,3.58326,3.21886l2.78609,16.78323a2.61576,2.61576,0,0,1-2.509,3.25226l-15.8007.08662a3.84089,3.84089,0,0,1-3.58326-3.21886L8.66139,4.15328A2.61576,2.61576,0,0,1,11.17042.901Z"/><line class="b" x1="85.66424" y1="35.60748" x2="89.71456" y2="58.80039"/><line class="b" x1="71.7629" y1="39.67516" x2="86.3393" y2="39.47296"/><line class="b" x1="73.91015" y1="51.26992" x2="82.76755" y2="39.58741"/><line class="b" x1="78.2293" y1="55.08485" x2="87.0867" y2="43.40235"/><line class="b" x1="74.46312" y1="55.1371" x2="89.03951" y2="54.9349"/><line class="b" x1="74.81498" y1="58.71226" x2="71.08785" y2="35.80967"/><path class="b" d="M70.50875,35.70894l15.66484-.08588a3.84089,3.84089,0,0,1,3.58326,3.21886L92.519,55.48083a2.61576,2.61576,0,0,1-2.509,3.25226L74.34512,58.819a3.84089,3.84089,0,0,1-3.58326-3.21886L67.99973,38.96119A2.61576,2.61576,0,0,1,70.50875,35.70894Z"/><line class="c" x1="32.2208" y1="35.90047" x2="36.27113" y2="59.09337"/><line class="c" x1="18.31947" y1="39.96815" x2="32.89586" y2="39.76595"/><line class="c" x1="20.46671" y1="51.56291" x2="29.32411" y2="39.8804"/><line class="c" x1="24.78586" y1="55.37784" x2="33.64326" y2="43.69534"/><line class="c" x1="21.01968" y1="55.43008" x2="35.59608" y2="55.22789"/><line class="c" x1="21.37155" y1="59.00525" x2="17.64441" y2="36.10266"/><path class="c" d="M17.06531,36.00192,32.73015,35.916a3.84089,3.84089,0,0,1,3.58326,3.21886l2.76213,16.63892a2.61576,2.61576,0,0,1-2.509,3.25226L20.90168,59.112a3.84089,3.84089,0,0,1-3.58326-3.21886L14.55629,39.25418A2.61576,2.61576,0,0,1,17.06531,36.00192Z"/><path class="d" d="M16.88891,96.83446h0a.83282.83282,0,0,0,.79884-1.03547L1.95482,1.02485A1.22288,1.22288,0,0,0,.814,0h0A.83282.83282,0,0,0,.01513,1.03548L15.74805,95.80963A1.22288,1.22288,0,0,0,16.88891,96.83446Z"/><path class="d" d="M106.6852,96.85772h0a.83282.83282,0,0,0,.79884-1.03547L91.75111,1.04811A1.22288,1.22288,0,0,0,90.61025.02328h0a.83282.83282,0,0,0-.79884,1.03547l15.73293,94.77414A1.22288,1.22288,0,0,0,106.6852,96.85772Z"/><polygon class="d" points="4.861 27.302 5.203 29.362 96.368 28.862 96.026 26.802 4.861 27.302"/><polygon class="d" points="10.846 63.357 11.188 65.417 102.354 64.918 102.012 62.857 10.846 63.357"/><line class="b" x1="62.99519" y1="47.10972" x2="46.70759" y2="47.19901"/><circle class="e" cx="46.82038" cy="47.19839" r="2.25589" transform="translate(-0.25472 0.25405) rotate(-0.31004)"/></svg>