<svg xmlns="http://www.w3.org/2000/svg" viewBox="0 0 105.58663 92.02692"><defs><style>.a,.c{fill:#00a098;}.a{opacity:0.4;}.b,.e{fill:none;stroke-miterlimit:10;}.b{stroke:#00a098;}.d{opacity:0.3;}.e{stroke:#afe100;stroke-linecap:round;}.f{fill:#afe100;}</style></defs><title>opalma1</title><path class="a" d="M.91082,28.23692c-2.10073-12.65466,3.264-19.6086,11.2985-19.65265l67.31615-.36906c8.03447-.044,15.69615,6.83848,17.79689,19.49313Z"/><line class="b" x1="97.32235" y1="27.70834" x2="0.91082" y2="28.23692"/><path class="c" d="M79.60247,9.215c7.519,0,14.71875,6.52106,16.04932,14.53656l8.72168,52.53778a12.96782,12.96782,0,0,1-2.54834,10.54214A10.91567,10.91567,0,0,1,93.372,90.65768l-67.31641.369-.07129.00018c-7.519,0-14.71875-6.52106-16.0498-14.5365L1.21331,23.95251A12.96881,12.96881,0,0,1,3.76116,13.41071a10.91624,10.91624,0,0,1,8.45361-3.82642l67.31592-.36908.07178-.00024m-.00049-1-.07666.00024L12.2094,8.58429C4.17473,8.6283-1.19,15.58228.227,24.11633L8.94817,76.65417c1.4126,8.507,9.02979,15.37274,17.03613,15.37274l.07666-.00021,67.31641-.369c8.03418-.044,13.39893-6.998,11.98242-15.53207L96.63811,23.58777C95.226,15.08081,87.60881,8.21484,79.602,8.215Z"/><path class="c" d="M15.22356.31909v1a3.30445,3.30445,0,0,1,2.98877,2.75073L19.58049,12.311a2.23487,2.23487,0,0,1-.4248,1.84009,1.77675,1.77675,0,0,1-1.40283.62036,3.30445,3.30445,0,0,1-2.98877-2.75073L13.39592,3.77954a2.23487,2.23487,0,0,1,.4248-1.84009,1.76835,1.76835,0,0,1,1.38965-.6203L15.22356.31909m0,0-.01807.00006A2.91491,2.91491,0,0,0,12.4096,3.9433l1.36816,8.24121a4.28319,4.28319,0,0,0,3.9751,3.587l.01807-.00006a2.91494,2.91494,0,0,0,2.7959-3.62415L19.19866,3.90607a4.28313,4.28313,0,0,0-3.9751-3.587Z"/><path class="c" d="M29.77141.23932v1a3.3044,3.3044,0,0,1,2.98828,2.75073l1.36816,8.24121a2.23489,2.23489,0,0,1-.42432,1.84021,1.778,1.778,0,0,1-1.40332.62024A3.3044,3.3044,0,0,1,29.31194,11.941L27.94378,3.69977a2.23489,2.23489,0,0,1,.42432-1.84021,1.76964,1.76964,0,0,1,1.39014-.62018L29.77141.23932m0,0-.01807.00006a2.91471,2.91471,0,0,0-2.7959,3.62415l1.36816,8.24121a4.28311,4.28311,0,0,0,3.97461,3.587l.01807-.00006a2.91471,2.91471,0,0,0,2.7959-3.62415L33.746,3.82629a4.283,4.283,0,0,0-3.97461-3.587Z"/><path class="c" d="M44.31878.15955v1a3.30445,3.30445,0,0,1,2.98877,2.75073l1.36816,8.24121a2.23487,2.23487,0,0,1-.4248,1.84009,1.77675,1.77675,0,0,1-1.40283.62036,3.30445,3.30445,0,0,1-2.98877-2.75073L42.49114,3.62a2.23487,2.23487,0,0,1,.4248-1.84009,1.76835,1.76835,0,0,1,1.38965-.6203L44.31878.15955m0,0-.01807.00006a2.91494,2.91494,0,0,0-2.7959,3.62415L42.873,12.025a4.28319,4.28319,0,0,0,3.9751,3.587l.01807-.00006a2.91491,2.91491,0,0,0,2.7959-3.62415L48.29387,3.74652a4.28319,4.28319,0,0,0-3.9751-3.587Z"/><path class="c" d="M58.86663.07977v1A3.30445,3.30445,0,0,1,61.8554,3.83051l1.36816,8.24127a2.23473,2.23473,0,0,1-.4248,1.84,1.77679,1.77679,0,0,1-1.40283.62042,3.30445,3.30445,0,0,1-2.98877-2.75079L57.039,3.54022a2.23478,2.23478,0,0,1,.4248-1.84,1.7684,1.7684,0,0,1,1.38965-.62036L58.86663.07977m0,0-.01807.00006A2.915,2.915,0,0,0,56.05266,3.704l1.36816,8.24121a4.28319,4.28319,0,0,0,3.9751,3.587l.01807-.00006a2.915,2.915,0,0,0,2.7959-3.62415L62.84172,3.66675a4.28319,4.28319,0,0,0-3.9751-3.587Z"/><path class="c" d="M73.41448,0V1a3.3044,3.3044,0,0,1,2.98828,2.75079L77.77092,11.992a2.23481,2.23481,0,0,1-.42432,1.84015,1.7779,1.7779,0,0,1-1.40332.6203A3.3044,3.3044,0,0,1,72.955,11.70172L71.58684,3.46045a2.23648,2.23648,0,0,1,.42432-1.84015,1.7695,1.7695,0,0,1,1.39014-.62024L73.41448,0m0,0-.01807.00006a2.91473,2.91473,0,0,0-2.7959,3.62415l1.36816,8.24127a4.28311,4.28311,0,0,0,3.97461,3.587l.01807-.00006a2.91473,2.91473,0,0,0,2.7959-3.62415L77.38909,3.587A4.28311,4.28311,0,0,0,73.41448,0Z"/><g class="d"><path d="M87.38762,46.71912h-.00293l-48.26855.26465a.49321.49321,0,0,0-.16895.035l-4.2998-2.441a.65869.65869,0,0,0-.9751.68066l.79443,4.78717a.6588.6588,0,0,0,1.03223.42841l3.521-2.51025a.47816.47816,0,0,0,.09912.02H39.122l48.26855-.26465a.5.5,0,0,0-.00293-1Z"/><path d="M66.97161,69.97791a2.25376,2.25376,0,0,0-2.1958,1.75586H12.22747a.5.5,0,0,0,0,1H64.77581a2.25411,2.25411,0,1,0,2.1958-2.75586Z"/><path d="M25.06243,39.09412a2.10681,2.10681,0,0,0-2.07617-1.7207l-14.25781.19775a2.07872,2.07872,0,0,0-2.01953,2.43652L9.39251,55.37341a2.06946,2.06946,0,0,0,2.04687,1.7207h.0293l1.55518-.02155.00049.00006.00146-.00012,12.70068-.17615A2.07872,2.07872,0,0,0,27.746,54.45984ZM21.996,44.0415l-6.75391,8.9068-2.33691.03247L12.495,50.63293l6.9126-9.11646,2.14209-.02972Zm-9.73584,5.24591-1.33643-7.65308,7.21533-.10022Zm.81934,4.69116L23.705,53.831l.36475,2.08813-10.62549.1474Zm3.43115-1.04785,5.72021-7.5437,1.30029,7.44617ZM21.37542,40.489l-10.62549.14758-.36475-2.08813,10.62549-.1474ZM11.455,56.09412a1.09449,1.09449,0,0,1-1.07812-.89307L7.69329,39.83582a1.07913,1.07913,0,0,1,1.04883-1.26465l.63086-.00873,3.05908,17.51813Zm15.07422-.58789a1.079,1.079,0,0,1-.81641.39014l-.63086.00873L23.04631,44.24915a.49447.49447,0,0,0-.0708-.4071L22.02288,38.387l.97705-.01355h.01563a1.07585,1.07585,0,0,1,1.0625.89307l2.68359,15.36523A1.08023,1.08023,0,0,1,26.52922,55.50623Z"/><path d="M94.746,79.45984,92.06243,64.09412a2.05409,2.05409,0,0,0-2.07617-1.7207l-14.25781.19775a2.07872,2.07872,0,0,0-2.01953,2.43652l2.68359,15.36572a2.06946,2.06946,0,0,0,2.04688,1.7207h.0293l1.55518-.02155.00049.00006.00146-.00012,12.70068-.17615A2.07872,2.07872,0,0,0,94.746,79.45984ZM88.996,69.0415l-6.75391,8.9068-2.33691.03247L79.495,75.63293l6.9126-9.11646,2.14209-.02972Zm-9.73584,5.24591-1.33643-7.65308,7.21533-.10022Zm.81934,4.69116L90.705,78.831l.36475,2.08813-10.62549.1474Zm3.43115-1.04785,5.72021-7.5437,1.30029,7.44617ZM88.37542,65.489l-10.62549.14758-.36475-2.08813,10.62549-.1474ZM78.455,81.09412h-.01562a1.07585,1.07585,0,0,1-1.0625-.89307L74.69329,64.83582a1.07913,1.07913,0,0,1,1.04883-1.26465l.63086-.00873,3.05908,17.51813Zm15.07422-.58789a1.079,1.079,0,0,1-.81641.39014l-.63086.00873L90.04631,69.24915a.49447.49447,0,0,0-.0708-.4071L89.02288,63.387l.97705-.01355h.01563a1.07585,1.07585,0,0,1,1.0625.89307l2.68359,15.36523A1.08023,1.08023,0,0,1,93.52922,80.50623Z"/></g><line class="e" x1="45.11899" y1="41.48366" x2="93.38779" y2="41.21905"/><path class="f" d="M41.499,44.47408l4.22661-3.01347-5.07852-2.88277a.65865.65865,0,0,0-.9749.68066l.79469,4.78714A.65865.65865,0,0,0,41.499,44.47408Z"/><line class="e" x1="18.22747" y1="66.23376" x2="73.0844" y2="66.23376"/><circle class="f" cx="72.97161" cy="66.23376" r="2.25586"/><path class="e" d="M31.71989,50.39654l-14.25766.19777a1.57905,1.57905,0,0,1-1.57741-1.30725L13.20144,33.92154A1.57905,1.57905,0,0,1,14.735,32.071l14.25766-.19777a1.57905,1.57905,0,0,1,1.57741,1.30725L33.2535,48.546A1.57905,1.57905,0,0,1,31.71989,50.39654Z"/><line class="e" x1="27.42926" y1="31.89491" x2="30.66288" y2="50.4112"/><line class="e" x1="16.33099" y1="35.14238" x2="27.9682" y2="34.98095"/><line class="e" x1="18.04526" y1="44.39917" x2="25.11666" y2="35.07233"/><line class="e" x1="21.4935" y1="47.44487" x2="28.5649" y2="38.11802"/><line class="e" x1="18.48673" y1="47.48657" x2="30.12394" y2="47.32515"/><line class="e" x1="19.02567" y1="50.57262" x2="15.79205" y2="32.05633"/><path class="e" d="M98.71989,75.39654l-14.25766.19777a1.57905,1.57905,0,0,1-1.57741-1.30725L80.20144,58.92154A1.57905,1.57905,0,0,1,81.735,57.071l14.25766-.19777a1.57905,1.57905,0,0,1,1.57741,1.30725L100.2535,73.546A1.57905,1.57905,0,0,1,98.71989,75.39654Z"/><line class="e" x1="94.42926" y1="56.89491" x2="97.66288" y2="75.4112"/><line class="e" x1="83.33099" y1="60.14238" x2="94.9682" y2="59.98095"/><line class="e" x1="85.04526" y1="69.39917" x2="92.11666" y2="60.07233"/><line class="e" x1="88.4935" y1="72.44487" x2="95.5649" y2="63.11802"/><line class="e" x1="85.48673" y1="72.48657" x2="97.12394" y2="72.32515"/><line class="e" x1="86.02567" y1="75.57262" x2="82.79205" y2="57.05633"/></svg>