<svg xmlns="http://www.w3.org/2000/svg" viewBox="0 0 127.91922 134.26263"><defs><style>.a{opacity:0.3;}.b,.e{fill:#00a098;}.b,.f{opacity:0.4;}.c{fill:none;stroke:#afe100;stroke-miterlimit:10;}.d{opacity:0.7;}.g{opacity:0.2;}.h{fill:#afe100;}</style></defs><title>opgen1</title><path class="a" d="M95.618,45.66044l-74.646.40922c-9.7175.05327-18.98412-8.271-20.69758-18.59274v0C-1.439,17.15512,5.04952,8.7445,14.767,8.69123L89.413,8.282c9.7175-.05327,18.98412,8.271,20.69758,18.59274v0C111.824,37.19654,105.33546,45.60717,95.618,45.66044Z"/><path class="b" d="M103.39971,37.87869l-74.646.40922c-9.7175.05327-18.98412-8.271-20.69758-18.59274v0C6.34272,9.37337,12.83128.96275,22.54878.90947l74.646-.40922c9.7175-.05327,18.98412,8.271,20.69758,18.59274v0C119.60577,29.41479,113.11721,37.82541,103.39971,37.87869Z"/><path class="c" d="M103.39971,37.87869l-74.646.40922c-9.7175.05327-18.98412-8.271-20.69758-18.59274v0C6.34272,9.37337,12.83128.96275,22.54878.90947l74.646-.40922c9.7175-.05327,18.98412,8.271,20.69758,18.59274v0C119.60577,29.41479,113.11721,37.82541,103.39971,37.87869Z"/><g class="d"><path class="b" d="M109.60107,78.25022l-88.91224.48743c-5.778.03168-11.28786-4.91788-12.30667-11.05514v0c-1.01881-6.13726,2.83925-11.13817,8.61722-11.16985l88.91224-.48743c5.778-.03168,11.28786,4.91788,12.30667,11.05514v0C119.23711,73.21763,115.379,78.21855,109.60107,78.25022Z"/><path class="e" d="M105.96716,57.02506c5.27588,0,10.32935,4.58426,11.26465,10.21909a9.04667,9.04667,0,0,1-1.77,7.35419,7.57389,7.57389,0,0,1-5.866,2.65189l-88.96216.48758c-5.27612,0-10.32959-4.58426-11.26489-10.21906a9.04591,9.04591,0,0,1,1.77-7.35428,7.5732,7.5732,0,0,1,5.866-2.65182l88.91235-.48746.05-.00012m-.00024-1-.05518.00015-88.91235.48743c-5.77808.03168-9.636,5.03259-8.61719,11.16986,1.01563,6.11777,6.49341,11.0553,12.25146,11.0553l.05518-.00015,88.91235-.48743c5.77783-.03168,9.636-5.03259,8.61719-11.16983v0c-1.01562-6.1178-6.49365-11.05539-12.25146-11.0553Z"/></g><g class="f"><path class="b" d="M114.37,106.01264l-88.91224.48743c-5.778.03168-11.28786-4.91788-12.30667-11.05514v0c-1.01881-6.13726,2.83925-11.13817,8.61722-11.16985l88.91224-.48743c5.778-.03168,11.28786,4.91788,12.30667,11.05514v0C124.006,100.98,120.14792,105.981,114.37,106.01264Z"/><path class="e" d="M110.736,84.78748c5.27588,0,10.32935,4.58426,11.26465,10.21906a9.04671,9.04671,0,0,1-1.77,7.35422,7.57389,7.57389,0,0,1-5.866,2.65189l-88.96216.48758c-5.27612,0-10.32959-4.58426-11.26489-10.21906a9.04674,9.04674,0,0,1,1.77-7.35422,7.57389,7.57389,0,0,1,5.866-2.65189l88.91235-.48746.05-.00012m-.00024-1-.05518.00015-88.91235.48743c-5.77783.03168-9.636,5.03259-8.61719,11.16986,1.01563,6.1178,6.49365,11.0553,12.25146,11.0553l.05518-.00015,88.91235-.48743c5.77783-.03168,9.636-5.03259,8.61719-11.16986-1.01562-6.11777-6.49365-11.05539-12.25146-11.0553Z"/></g><g class="g"><path class="b" d="M119.13883,133.77505l-88.91224.48743c-5.778.03168-11.28786-4.91788-12.30667-11.05514v0c-1.01881-6.13726,2.83925-11.13817,8.61722-11.16985l88.91224-.48743c5.778-.03168,11.28786,4.91788,12.30667,11.05514v0C128.77487,128.74247,124.9168,133.74338,119.13883,133.77505Z"/><path class="e" d="M115.50476,112.5499c5.27588,0,10.32935,4.58426,11.26465,10.21906a9.04591,9.04591,0,0,1-1.77,7.35428,7.5732,7.5732,0,0,1-5.866,2.65183l-88.96191.48758c-5.27612,0-10.32959-4.58429-11.26514-10.21909a9.04653,9.04653,0,0,1,1.77-7.35413,7.574,7.574,0,0,1,5.86621-2.65195l88.91211-.48746.05-.00012m-.00024-1-.05518.00015-88.91211.48743c-5.77808.03168-9.63623,5.03259-8.61743,11.16983v0c1.01587,6.11777,6.49365,11.0553,12.25171,11.0553l.05518-.00015,88.91211-.48743c5.77808-.03168,9.636-5.03259,8.61719-11.16986-1.01562-6.1178-6.49341-11.05539-12.25146-11.0553Z"/></g><polygon class="h" points="96.468 8.353 100.859 15.952 108.778 16.714 103.839 22.257 106.872 30.361 99.429 26.188 93.384 30.435 93.723 22.313 86.955 16.833 94.607 15.987 96.468 8.353"/></svg>