<svg xmlns="http://www.w3.org/2000/svg" viewBox="0 0 148.21538 114.93573"><defs><style>.a,.c{fill:#00a098;}.a{opacity:0.4;}.b{opacity:0.3;}.d{fill:none;stroke:#afe100;stroke-miterlimit:10;}.e{fill:#afe100;}</style></defs><title>opgen2</title><path class="a" d="M139.435,114.44814l-81.47262.48743c-5.778.03168-11.28786-4.91788-12.30667-11.05514v0c-1.01881-6.13726,2.83925-11.13817,8.61722-11.16985l81.47262-.48743c5.778-.03168,11.28786,4.91788,12.30667,11.05514v0C149.071,109.41556,145.213,114.41647,139.435,114.44814Z"/><path class="a" d="M129.89723,53.96356,48.42461,54.451c-5.778.03168-11.28786-4.91788-12.30667-11.05514v0c-1.01881-6.13726,2.83925-11.13817,8.61722-11.16985l81.47262-.48743c5.778-.03168,11.28786,4.91788,12.30667,11.05514v0C139.53326,48.931,135.6752,53.93188,129.89723,53.96356Z"/><g class="b"><path d="M19.235,43.75319l.65751,3.962,3.53939-.01937.293,1.76849-3.53939.01937.66114,3.982-1.81874.01029-.66114-3.982-3.52.01937-.293-1.76849,3.52-.01937-.65751-3.962Z"/><path d="M103.78816,18.27331c-1.06194-6.39464-6.82571-11.57356-12.86557-11.57356h-.05691L9.393,7.18712a9.16781,9.16781,0,0,0-7.09574,3.2288A10.65565,10.65565,0,0,0,.16856,19.07854C1.22928,25.47318,6.99185,30.65211,13.0317,30.65211h.05812l1.80542-.01082L16.40884,39.76l1.2024-.00658-1.5136-9.11934,78.46484-.46937a9.16872,9.16872,0,0,0,7.09574-3.22759A10.65829,10.65829,0,0,0,103.78816,18.27331Z"/><path d="M113.51635,78.27409c-1.06073-6.39464-6.82329-11.57356-12.86436-11.57356h-.05691l-78.20693.46785-1.5136-9.115-1.2024.00658,1.5136,9.11563-2.06333.01234a9.16925,9.16925,0,0,0-7.09574,3.2282,10.65885,10.65885,0,0,0-2.12993,8.66383c1.06073,6.39464,6.82329,11.573,12.86436,11.573h.05812l81.47145-.48738a9.16872,9.16872,0,0,0,7.09574-3.22759A10.65829,10.65829,0,0,0,113.51635,78.27409Z"/></g><path class="c" d="M135.8009,93.223c5.27588,0,10.32935,4.58426,11.26465,10.21909a9.04583,9.04583,0,0,1-1.77,7.35425,7.57356,7.57356,0,0,1-5.86646,2.65186l-81.522.48756c-5.27612,0-10.32959-4.58426-11.26489-10.21907a9.04674,9.04674,0,0,1,1.77-7.35422,7.57417,7.57417,0,0,1,5.86646-2.65189l81.47266-.48743.04956-.00015m-.00024-1-.05518.00015-81.47266.48743c-5.77783.03168-9.636,5.03259-8.61719,11.16986v0c1.01563,6.11777,6.49365,11.05528,12.25146,11.05528l.05518-.00015,81.47266-.48743c5.77808-.03168,9.636-5.03259,8.61719-11.16985v0c-1.01562-6.1178-6.49341-11.05539-12.25146-11.0553Z"/><path class="a" d="M111.10728,82.726l-81.47262.48743c-5.778.03168-11.28786-4.91788-12.30667-11.05514v0c-1.01881-6.13726,2.83925-11.13817,8.61722-11.16985l81.47262-.48743c5.778-.03168,11.28786,4.91788,12.30667,11.05514v0C120.74332,77.69339,116.88525,82.6943,111.10728,82.726Z"/><path class="a" d="M101.37865,22.72516,19.906,23.21259c-5.778.03168-11.28786-4.91788-12.30667-11.05514v0C6.58055,6.02017,10.43861,1.01926,16.21658.98758L97.6892.50015c5.778-.03168,11.28786,4.91788,12.30667,11.05514v0C111.01468,17.69258,107.15662,22.69349,101.37865,22.72516Z"/><path class="c" d="M126.2633,32.73838c5.27588,0,10.32935,4.58426,11.26465,10.21909a9.04674,9.04674,0,0,1-1.77,7.35422,7.57417,7.57417,0,0,1-5.86646,2.65189l-81.522.48758c-5.27612,0-10.32959-4.58426-11.26489-10.21909a9.04591,9.04591,0,0,1,1.77-7.35428A7.57358,7.57358,0,0,1,44.74108,33.226l81.47266-.48743.04956-.00015m-.00024-1-.05518.00015L44.73522,32.226c-5.77808.03168-9.636,5.03259-8.61719,11.16986v0c1.01563,6.1178,6.49341,11.0553,12.25146,11.0553l.05518-.00015,81.47266-.48743c5.77783-.03168,9.636-5.03259,8.61719-11.16986v0c-1.01562-6.1178-6.49365-11.05539-12.25146-11.0553Z"/><path class="d" d="M111.10728,82.726l-81.47262.48743c-5.778.03168-11.28786-4.91788-12.30667-11.05514v0c-1.01881-6.13726,2.83925-11.13817,8.61722-11.16985l81.47262-.48743c5.778-.03168,11.28786,4.91788,12.30667,11.05514v0C120.74332,77.69339,116.88525,82.6943,111.10728,82.726Z"/><path class="d" d="M101.37865,22.72516,19.906,23.21259c-5.778.03168-11.28786-4.91788-12.30667-11.05514v0C6.58055,6.02017,10.43861,1.01926,16.21658.98758L97.6892.50015c5.778-.03168,11.28786,4.91788,12.30667,11.05514v0C111.01468,17.69258,107.15662,22.69349,101.37865,22.72516Z"/><path class="e" d="M26.08435,36.9575l.65723,3.9624,3.53906-.01953.29395,1.76855-3.53906.01953.66113,3.981-1.82031.00977-.66113-3.981-3.52051.01953-.29395-1.76855,3.52051-.01953-.65723-3.9624Z"/><polygon class="e" points="24.431 32.934 23.229 32.94 21.532 22.722 22.735 22.715 24.431 32.934"/><polygon class="e" points="29.391 61.452 28.188 61.459 26.492 51.24 27.694 51.234 29.391 61.452"/></svg>