<svg xmlns="http://www.w3.org/2000/svg" viewBox="0 0 133.0385 141.68766"><defs><style>.a,.c{fill:#00a098;}.a{opacity:0.4;}.b{opacity:0.3;}.d{fill:none;stroke:#00a098;stroke-miterlimit:10;}.e{fill:#afe100;}</style></defs><title>opgen3</title><path class="a" d="M108.18885,22.42719l-50.774.27835L55.57836,11.64271C54.5641,5.53289,58.40491.55434,64.15705.5228L104.5159.30155C110.268.27,115.75328,5.19744,116.76754,11.30726v0C117.7818,17.41711,113.941,22.39566,108.18885,22.42719Z"/><path class="a" d="M116.2431,70.7527l-50.774.27835L63.63261,59.96821c-1.01426-6.10982,2.82656-11.08837,8.5787-11.11991l40.35884-.22125c5.75214-.03153,11.23739,4.89589,12.25164,11.00571v0C125.83605,65.74261,121.99524,70.72116,116.2431,70.7527Z"/><path class="a" d="M124.29735,119.0782l-50.774.27835-1.83648-11.06283c-1.01426-6.10982,2.82656-11.08837,8.5787-11.11991l40.35884-.22125c5.75214-.03153,11.23739,4.89589,12.25164,11.00571v0C133.8903,114.06811,130.04949,119.04667,124.29735,119.0782Z"/><path class="b" d="M35.72,26.11548c1.72579,10.39608-4.80948,18.86726-14.597,18.92092S2.00219,36.70587.2764,26.30979,5.08588,7.44253,14.87335,7.38887,33.99416,15.71941,35.72,26.11548Z"/><path class="b" d="M43.77421,74.441C45.5,84.83706,38.96472,93.30825,29.17725,93.3619S10.05644,85.03137,8.33065,74.63529,13.14013,55.768,22.9276,55.71437,42.04841,64.04491,43.77421,74.441Z"/><path class="b" d="M51.82846,122.76649c1.72579,10.39608-4.80948,18.86726-14.597,18.92092s-19.12081-8.33053-20.84661-18.72661,4.80948-18.86726,14.597-18.92092S50.10266,112.37041,51.82846,122.76649Z"/><path class="a" d="M43.10857,18.72687c1.72579,10.39608-4.80948,18.86726-14.597,18.92092S9.39081,29.31725,7.665,18.92117,12.4745.05391,22.262.00026,41.38278,8.33079,43.10857,18.72687Z"/><path class="c" d="M22.35583,1C31.6173,1,40.48425,9.02571,42.12194,18.89064A16.01326,16.01326,0,0,1,38.9696,31.909,13.51219,13.51219,0,0,1,28.50622,36.6478l-.08813.00024c-9.26172,0-18.12891-8.02571-19.7666-17.89061A16.0135,16.0135,0,0,1,11.80407,5.73894,13.51228,13.51228,0,0,1,22.26745,1.00025L22.35583,1m-.00024-1-.09351.00026C12.47448.05391,5.93933,8.5251,7.66491,18.92118c1.72046,10.36308,11,18.72687,20.75317,18.72687l.09351-.00026c9.7876-.05365,16.32275-8.52484,14.59692-18.92091C41.38806,8.36377,32.109-.00017,22.35559,0Z"/><path class="c" d="M104.57092,1.30139c5.25049,0,10.2793,4.56207,11.21,10.16968a9.0008,9.0008,0,0,1-1.761,7.31763,7.53541,7.53541,0,0,1-5.83643,2.6385l-49.92163.27367L56.56481,11.479A9.001,9.001,0,0,1,58.326,4.16124a7.53552,7.53552,0,0,1,5.83643-2.63846l40.35889-.22125.04956-.00014m0-1L104.516.30155,64.1571.5228c-5.7522.03154-9.593,5.01009-8.57886,11.11992l1.83667,11.06282,50.77393-.27835c5.7522-.03152,9.593-5.01009,8.57861-11.1199v0c-1.011-6.09044-6.4646-11.006-12.19653-11.00587Z"/><line class="d" x1="64.76869" y1="8.13206" x2="99.91992" y2="7.93936"/><line class="d" x1="65.80171" y1="14.3549" x2="86.63207" y2="14.2407"/><path class="e" d="M30.058,23.85257a2.20377,2.20377,0,0,1-1.5791-.5459,2.80866,2.80866,0,0,1-.78613-1.58789,3.47888,3.47888,0,0,1-1.15234,1.61084,2.79462,2.79462,0,0,1-1.62988.50342,2.63228,2.63228,0,0,1-1.127-.22656,2.69179,2.69179,0,0,1-.86816-.63379,3.46473,3.46473,0,0,1-.61328-.9502,4.91329,4.91329,0,0,1-.34766-1.17969,5.74117,5.74117,0,0,1,.02832-2.03369,4.75034,4.75034,0,0,1,.76074-1.84131,4.351,4.351,0,0,1,1.502-1.33838,4.60537,4.60537,0,0,1,2.2373-.5249,5.78714,5.78714,0,0,1,1.13379.10059,4.53511,4.53511,0,0,1,.98926.30518l-.335,4.14111a9.60362,9.60362,0,0,0-.0332.98389,5.46818,5.46818,0,0,0,.06836.78125,2.73146,2.73146,0,0,0,.26367.85156,1.68486,1.68486,0,0,0,.418.51709,1.30324,1.30324,0,0,0,.51953.25391,2.51322,2.51322,0,0,0,.57129.062,2.03234,2.03234,0,0,0,1.165-.36426,2.71972,2.71972,0,0,0,.8623-1.0249,4.71008,4.71008,0,0,0,.44629-1.60693,7.65334,7.65334,0,0,0-.08691-2.11133,9.013,9.013,0,0,0-1.05566-3.07715,7.70413,7.70413,0,0,0-1.84375-2.1792,7.44891,7.44891,0,0,0-2.39746-1.2876,8.71641,8.71641,0,0,0-2.71973-.41406,6.23076,6.23076,0,0,0-2.80762.64795,5.947,5.947,0,0,0-2.11914,1.77686,7.00466,7.00466,0,0,0-1.20117,2.7085,8.96587,8.96587,0,0,0-.04,3.44141,11.25364,11.25364,0,0,0,1.25,3.70947,9.652,9.652,0,0,0,2.168,2.67236,8.90284,8.90284,0,0,0,2.81152,1.61816,9.32806,9.32806,0,0,0,3.18359.53809,10.03794,10.03794,0,0,0,2.96777-.42236,7.17285,7.17285,0,0,0,2.30078-1.19385.268.268,0,0,1,.18066-.06006.28091.28091,0,0,1,.252.16553l.24219.43994a8.29285,8.29285,0,0,1-2.541,1.374,10.88333,10.88333,0,0,1-6.8291-.11182,9.82763,9.82763,0,0,1-3.09668-1.80811A10.69466,10.69466,0,0,1,18.807,23.59818a12.16427,12.16427,0,0,1-1.34668-3.9834,9.6909,9.6909,0,0,1,.04883-3.69775,7.67338,7.67338,0,0,1,1.31641-2.96533,6.6312,6.6312,0,0,1,2.34473-1.9751,6.91559,6.91559,0,0,1,3.14746-.72754,9.17231,9.17231,0,0,1,2.96582.479,8.67413,8.67413,0,0,1,2.68652,1.46387,9.07852,9.07852,0,0,1,2.09863,2.42822,9.44171,9.44171,0,0,1,1.19336,3.36914,7.9334,7.9334,0,0,1,.06836,2.374,5.09,5.09,0,0,1-.58691,1.84619,3.32118,3.32118,0,0,1-1.12988,1.20557A2.90417,2.90417,0,0,1,30.058,23.85257ZM24.98181,23.045a2.45654,2.45654,0,0,0,.8125-.14746,1.798,1.798,0,0,0,.74414-.52246,3.24667,3.24667,0,0,0,.57813-1.01758A5.87818,5.87818,0,0,0,27.43,19.72806l.28418-3.7002a4.13856,4.13856,0,0,0-.57617-.12158,4.78852,4.78852,0,0,0-.67383-.03857,3.47693,3.47693,0,0,0-1.76367.44531,3.57329,3.57329,0,0,0-1.21289,1.146,4.45157,4.45157,0,0,0-.63574,1.5835,4.91,4.91,0,0,0-.02637,1.772,3.75056,3.75056,0,0,0,.25977.88721,2.55065,2.55065,0,0,0,.45508.707,2.03353,2.03353,0,0,0,.63379.46826A1.82336,1.82336,0,0,0,24.98181,23.045Z"/><path class="a" d="M51.16282,67.05237c1.72579,10.39608-4.80948,18.86726-14.597,18.92092S17.44506,77.64275,15.71926,67.24668s4.80948-18.86726,14.597-18.92092S49.437,56.65629,51.16282,67.05237Z"/><path class="c" d="M30.41,49.3255c9.26172,0,18.12866,8.0257,19.76611,17.89064a16.01326,16.01326,0,0,1-3.15234,13.0184,13.51223,13.51223,0,0,1-10.46338,4.73875l-.08813.00025c-9.26172,0-18.12891-8.0257-19.76636-17.89064a16.01326,16.01326,0,0,1,3.15234-13.0184,13.51223,13.51223,0,0,1,10.46338-4.73875L30.41,49.3255m-.00024-1-.09351.00025c-9.7876.05365-16.32275,8.52483-14.59692,18.92091,1.72021,10.36308,10.99951,18.72686,20.75293,18.72686l.09351-.00025c9.7876-.05365,16.32275-8.52483,14.59692-18.92091C49.4425,56.68929,40.1632,48.32534,30.40978,48.32551Z"/><path class="c" d="M112.62536,49.6269c5.25024,0,10.27905,4.5621,11.21,10.16963a9.00105,9.00105,0,0,1-1.76123,7.31773,7.53554,7.53554,0,0,1-5.83643,2.63844L66.316,70.02638l-1.69678-10.222a9.00082,9.00082,0,0,1,1.761-7.31763,7.53548,7.53548,0,0,1,5.83643-2.6385l40.35889-.22124.0498-.00014m-.00024-1-.05493.00014L72.2113,48.8483c-5.7522.03154-9.593,5.01009-8.57861,11.11991L65.46911,71.031l50.77393-.27836c5.7522-.03153,9.593-5.01007,8.57886-11.1199v0c-1.01123-6.09043-6.4646-11.006-12.19678-11.00586Z"/><line class="d" x1="72.82294" y1="56.45757" x2="107.97417" y2="56.26486"/><line class="d" x1="73.85596" y1="62.6804" x2="94.68632" y2="62.56621"/><path class="e" d="M38.11267,72.17728a2.20535,2.20535,0,0,1-1.5791-.5459,2.80621,2.80621,0,0,1-.78516-1.58838,3.47918,3.47918,0,0,1-1.15332,1.61084,2.79153,2.79153,0,0,1-1.62988.50391,2.61747,2.61747,0,0,1-1.126-.22607,2.71021,2.71021,0,0,1-.86914-.63379,3.4977,3.4977,0,0,1-.61328-.95068,4.86435,4.86435,0,0,1-.34668-1.1792,5.741,5.741,0,0,1,.02734-2.03369,4.7856,4.7856,0,0,1,.76074-1.8418,4.36864,4.36864,0,0,1,1.502-1.33838,4.61083,4.61083,0,0,1,2.2373-.5249,5.84131,5.84131,0,0,1,1.13477.10107,4.55278,4.55278,0,0,1,.98828.30469l-.335,4.14111a9.61709,9.61709,0,0,0-.0332.98438,5.78163,5.78163,0,0,0,.06836.78125,2.7528,2.7528,0,0,0,.26465.85107,1.68276,1.68276,0,0,0,.417.51709,1.29951,1.29951,0,0,0,.52051.25342,2.50754,2.50754,0,0,0,.57129.0625,2.02392,2.02392,0,0,0,1.16406-.36475,2.70219,2.70219,0,0,0,.86328-1.02393,4.698,4.698,0,0,0,.44531-1.60693,7.649,7.649,0,0,0-.08594-2.11133,9.04014,9.04014,0,0,0-1.05566-3.07764,7.68229,7.68229,0,0,0-1.84473-2.17871,7.42941,7.42941,0,0,0-2.39746-1.2876,8.67932,8.67932,0,0,0-2.71973-.41406,6.2294,6.2294,0,0,0-2.80664.647,5.96334,5.96334,0,0,0-2.11914,1.77734,7.00466,7.00466,0,0,0-1.20117,2.7085,8.94826,8.94826,0,0,0-.041,3.44189,11.28385,11.28385,0,0,0,1.25,3.70947,9.67744,9.67744,0,0,0,2.168,2.67188,8.91811,8.91811,0,0,0,2.8125,1.61865,9.32315,9.32315,0,0,0,3.18359.53711,10.05511,10.05511,0,0,0,2.96777-.42139,7.197,7.197,0,0,0,2.2998-1.19385.27.27,0,0,1,.18066-.06055.2831.2831,0,0,1,.25293.16553l.24219.43994a8.30415,8.30415,0,0,1-2.541,1.374,10.3433,10.3433,0,0,1-3.26953.49512,10.23742,10.23742,0,0,1-3.56055-.60645A9.85843,9.85843,0,0,1,29.225,74.85648a10.69174,10.69174,0,0,1-2.3623-2.93359A12.16144,12.16144,0,0,1,25.516,67.94a9.67409,9.67409,0,0,1,.04883-3.69824,7.66767,7.66767,0,0,1,1.31641-2.96582,6.6567,6.6567,0,0,1,2.34375-1.9751,6.92845,6.92845,0,0,1,3.14844-.72656,9.17114,9.17114,0,0,1,2.96582.478,8.67121,8.67121,0,0,1,2.68555,1.46484,9.04185,9.04185,0,0,1,2.09863,2.42773,9.46048,9.46048,0,0,1,1.19434,3.36963,7.96,7.96,0,0,1,.06836,2.373,5.09267,5.09267,0,0,1-.58691,1.84668,3.32008,3.32008,0,0,1-1.12988,1.20508A2.91037,2.91037,0,0,1,38.11267,72.17728Zm-5.0752-.80713a2.44653,2.44653,0,0,0,.81152-.14746,1.80352,1.80352,0,0,0,.74414-.52344,3.24157,3.24157,0,0,0,.5791-1.0166,5.88956,5.88956,0,0,0,.31348-1.63037l.2832-3.69971a3.94726,3.94726,0,0,0-.57617-.12158,4.78852,4.78852,0,0,0-.67383-.03857,3.47325,3.47325,0,0,0-1.7627.44531,3.58441,3.58441,0,0,0-1.21387,1.14551,4.45487,4.45487,0,0,0-.63477,1.58447,4.8855,4.8855,0,0,0-.02637,1.77148,3.70929,3.70929,0,0,0,.25977.8877,2.55548,2.55548,0,0,0,.4541.707,2.06259,2.06259,0,0,0,.63379.46777A1.84438,1.84438,0,0,0,33.03747,71.37015Z"/><path class="a" d="M59.21707,115.37787c1.72579,10.39608-4.80948,18.86726-14.597,18.92092s-19.12081-8.33053-20.84661-18.72661,4.80948-18.86726,14.597-18.92092S57.49128,104.98179,59.21707,115.37787Z"/><path class="c" d="M38.46423,97.651c9.26147,0,18.12866,8.02571,19.76636,17.89064A16.01319,16.01319,0,0,1,55.07824,128.56a13.51251,13.51251,0,0,1-10.46338,4.73881l-.08813.00025c-9.26172,0-18.12891-8.0257-19.7666-17.89063A16.01324,16.01324,0,0,1,27.91247,102.39a13.51224,13.51224,0,0,1,10.46338-4.73876l.08838-.00025m-.00024-1-.09351.00025c-9.7876.05366-16.32275,8.52484-14.59692,18.92092C25.494,125.93526,34.77307,134.299,44.52673,134.299l.09351-.00026c9.78735-.05365,16.32275-8.52483,14.59692-18.92091C57.4967,105.01479,48.2174,96.65084,38.464,96.651Z"/><path class="c" d="M120.67956,97.9524c5.25024,0,10.27905,4.5621,11.21,10.16963a9.00108,9.00108,0,0,1-1.76123,7.31773,7.53552,7.53552,0,0,1-5.83643,2.63844l-49.92163.27368-1.69678-10.222a9.00081,9.00081,0,0,1,1.761-7.31763,7.53548,7.53548,0,0,1,5.83643-2.6385l40.35889-.22125.0498-.00014m-.00024-1-.05493.00015-40.35889.22125c-5.7522.03154-9.593,5.01008-8.57861,11.11991l1.83643,11.06284,50.77393-.27835c5.7522-.03153,9.593-5.01009,8.57886-11.11991v0c-1.01123-6.09043-6.4646-11.006-12.19678-11.00587Z"/><line class="d" x1="80.87719" y1="104.78307" x2="116.02842" y2="104.59036"/><line class="d" x1="81.91021" y1="111.0059" x2="102.74057" y2="110.89171"/><path class="e" d="M46.16735,119.27054a2.20352,2.20352,0,0,1-1.5791-.54541,2.81016,2.81016,0,0,1-.78613-1.58838,3.47374,3.47374,0,0,1-1.15234,1.61084,2.795,2.795,0,0,1-1.62988.50391,2.63228,2.63228,0,0,1-1.127-.22656,2.69179,2.69179,0,0,1-.86816-.63379,3.46473,3.46473,0,0,1-.61328-.9502,4.91329,4.91329,0,0,1-.34766-1.17969,5.71847,5.71847,0,0,1,.02832-2.03369,4.7556,4.7556,0,0,1,.76074-1.8418,4.35461,4.35461,0,0,1,1.502-1.33789,4.60537,4.60537,0,0,1,2.2373-.5249,5.78714,5.78714,0,0,1,1.13379.10059,4.5351,4.5351,0,0,1,.98926.30518l-.335,4.14063a9.61709,9.61709,0,0,0-.0332.98438,5.47467,5.47467,0,0,0,.06836.78125,2.73146,2.73146,0,0,0,.26367.85156,1.66288,1.66288,0,0,0,.418.5166,1.29683,1.29683,0,0,0,.51953.25391,2.48594,2.48594,0,0,0,.57129.062,2.02346,2.02346,0,0,0,1.16406-.36426,2.7076,2.7076,0,0,0,.86328-1.02441,4.71646,4.71646,0,0,0,.44629-1.60693,7.6527,7.6527,0,0,0-.08691-2.11133,9.01934,9.01934,0,0,0-1.05566-3.07764,7.70192,7.70192,0,0,0-1.84375-2.17871,7.44891,7.44891,0,0,0-2.39746-1.2876,8.71641,8.71641,0,0,0-2.71973-.41406,6.23687,6.23687,0,0,0-2.80762.64746,5.95335,5.95335,0,0,0-2.11914,1.77734,7.0057,7.0057,0,0,0-1.20117,2.708,8.9686,8.9686,0,0,0-.04,3.44189,11.23128,11.23128,0,0,0,1.25,3.70947,9.66663,9.66663,0,0,0,2.167,2.67236,8.92751,8.92751,0,0,0,2.8125,1.61816,9.32759,9.32759,0,0,0,3.18359.5376,10.05454,10.05454,0,0,0,2.96777-.42187,7.1923,7.1923,0,0,0,2.30078-1.19385.268.268,0,0,1,.18066-.06006.28091.28091,0,0,1,.252.16553l.24219.43994a8.29174,8.29174,0,0,1-2.541,1.37354,10.87851,10.87851,0,0,1-6.8291-.11133,9.86164,9.86164,0,0,1-3.09766-1.80811,10.70968,10.70968,0,0,1-2.3623-2.93359,12.16427,12.16427,0,0,1-1.34668-3.9834,9.6909,9.6909,0,0,1,.04883-3.69775,7.67559,7.67559,0,0,1,1.31641-2.96582,6.64127,6.64127,0,0,1,2.34473-1.9751,6.9216,6.9216,0,0,1,3.14746-.72705,9.185,9.185,0,0,1,2.96582.47852,8.6755,8.6755,0,0,1,2.68652,1.46436,9.07852,9.07852,0,0,1,2.09863,2.42822,9.43832,9.43832,0,0,1,1.19336,3.36914,7.9334,7.9334,0,0,1,.06836,2.374,5.09312,5.09312,0,0,1-.58691,1.84619A3.32787,3.32787,0,0,1,47.723,118.833,2.90662,2.90662,0,0,1,46.16735,119.27054Zm-5.07617-.80713a2.45654,2.45654,0,0,0,.8125-.14746,1.81014,1.81014,0,0,0,.74414-.52295,3.24376,3.24376,0,0,0,.57813-1.01709,5.87833,5.87833,0,0,0,.31348-1.62988l.28418-3.69971a4.14,4.14,0,0,0-.57617-.12207,4.86928,4.86928,0,0,0-.67383-.03809,3.47673,3.47673,0,0,0-1.76367.44482,3.58266,3.58266,0,0,0-1.21289,1.146,4.454,4.454,0,0,0-.63574,1.584,4.90984,4.90984,0,0,0-.02637,1.772,3.75733,3.75733,0,0,0,.25977.88721,2.55788,2.55788,0,0,0,.45508.707,2.03353,2.03353,0,0,0,.63379.46826A1.83012,1.83012,0,0,0,41.09118,118.46341Z"/></svg>