<svg xmlns="http://www.w3.org/2000/svg" viewBox="0 0 116.31294 115.38319"><defs><style>.a,.c{fill:#00a098;}.a{opacity:0.4;}.b{opacity:0.3;}.d,.e{fill:none;stroke-miterlimit:10;}.d{stroke:#00a098;}.e{stroke:#afe100;}.f{fill:#afe100;}</style></defs><title>optran3</title><path class="a" d="M101.95912,60.77677l-35.79386.21267a7.33729,7.33729,0,0,1-6.84513-6.149h0c-.56668-3.41363,1.57923-6.1952,4.793-6.21282L99.907,48.41492a7.33729,7.33729,0,0,1,6.84513,6.149h0C107.31881,57.97758,105.17291,60.75915,101.95912,60.77677Z"/><path class="a" d="M108.98723,91.36989l-34.824.20736c-4.82068.02643-9.41768-4.10308-10.2677-9.22352v0c-.85-5.12044,2.36884-9.2928,7.18952-9.31923l34.824-.20736c4.82068-.02643,9.41768,4.10308,10.2677,9.22352v0C117.02677,87.1711,113.80791,91.34346,108.98723,91.36989Z"/><path class="a" d="M105.18885,25.42719l-47.774.27835L55.57836,14.64271C54.5641,8.53289,58.40491,3.55434,64.15705,3.5228l37.35884-.22125C107.268,3.27,112.75328,8.19744,113.76754,14.30726v0C114.7818,20.41711,110.941,25.39566,105.18885,25.42719Z"/><path class="b" d="M35.72,26.11548c1.72579,10.39608-4.80948,18.86726-14.597,18.92092S2.00219,36.70587.2764,26.30979,5.08588,7.44253,14.87335,7.38887,33.99416,15.71941,35.72,26.11548Z"/><path class="a" d="M43.10857,18.72687c1.72579,10.39608-4.80948,18.86726-14.597,18.92092S9.39081,29.31725,7.665,18.92117,12.4745.05391,22.262.00026,41.38278,8.33079,43.10857,18.72687Z"/><path class="c" d="M22.35574,1C31.61721,1,40.4844,9.02571,42.1221,18.89061a16.0135,16.0135,0,0,1-3.15259,13.01849A13.51228,13.51228,0,0,1,28.50613,36.6478L28.418,36.648c-9.26147,0-18.12866-8.02571-19.76636-17.89064A16.01326,16.01326,0,0,1,11.804,5.739,13.51219,13.51219,0,0,1,22.26736,1.00025L22.35574,1M22.3555,0,22.262.00026C12.47439.05391,5.93924,8.5251,7.66507,18.92118,9.38553,29.28426,18.66482,37.648,28.418,37.648l.09351-.00026c9.7876-.05365,16.32275-8.52484,14.59717-18.92091C41.38821,8.36377,32.10891-.00017,22.3555,0Z"/><path class="c" d="M101.57107,4.30139c5.25024,0,10.27905,4.5621,11.21,10.16963a9.00107,9.00107,0,0,1-1.76123,7.31773,7.53579,7.53579,0,0,1-5.83691,2.63844l-46.92114.27339L56.565,14.47893a9.00083,9.00083,0,0,1,1.761-7.31764,7.53579,7.53579,0,0,1,5.83691-2.6385l37.3584-.22124.0498-.00015m-.00024-1-.05493.00015L64.157,3.5228c-5.7522.03154-9.593,5.01009-8.57861,11.11992l1.83643,11.06282,47.77393-.27835c5.7522-.03152,9.593-5.01009,8.57886-11.1199v0c-1.01123-6.09044-6.4646-11.006-12.19678-11.00587Z"/><line class="d" x1="64.76869" y1="11.13206" x2="99.91992" y2="10.93936"/><line class="d" x1="65.80171" y1="17.3549" x2="86.63207" y2="17.2407"/><line class="e" x1="72.76869" y1="79.13206" x2="104.91992" y2="78.93936"/><line class="e" x1="73.80171" y1="85.3549" x2="94.63207" y2="85.2407"/><path class="f" d="M30.05838,23.85257a2.20377,2.20377,0,0,1-1.5791-.5459,2.80866,2.80866,0,0,1-.78613-1.58789,3.47888,3.47888,0,0,1-1.15234,1.61084,2.79462,2.79462,0,0,1-1.62988.50342,2.63228,2.63228,0,0,1-1.127-.22656,2.69179,2.69179,0,0,1-.86816-.63379,3.46473,3.46473,0,0,1-.61328-.9502,4.91329,4.91329,0,0,1-.34766-1.17969,5.74117,5.74117,0,0,1,.02832-2.03369,4.75034,4.75034,0,0,1,.76074-1.84131,4.351,4.351,0,0,1,1.502-1.33838,4.60537,4.60537,0,0,1,2.2373-.5249,5.78714,5.78714,0,0,1,1.13379.10059,4.53511,4.53511,0,0,1,.98926.30518l-.335,4.14111a9.60363,9.60363,0,0,0-.0332.98389,5.46818,5.46818,0,0,0,.06836.78125,2.73146,2.73146,0,0,0,.26367.85156,1.68486,1.68486,0,0,0,.418.51709,1.30324,1.30324,0,0,0,.51953.25391,2.51322,2.51322,0,0,0,.57129.062,2.03234,2.03234,0,0,0,1.165-.36426,2.71972,2.71972,0,0,0,.8623-1.0249,4.71008,4.71008,0,0,0,.44629-1.60693,7.65334,7.65334,0,0,0-.08691-2.11133,9.013,9.013,0,0,0-1.05566-3.07715,7.70413,7.70413,0,0,0-1.84375-2.1792,7.44891,7.44891,0,0,0-2.39746-1.2876,8.71641,8.71641,0,0,0-2.71973-.41406,6.23076,6.23076,0,0,0-2.80762.64795,5.947,5.947,0,0,0-2.11914,1.77686,7.00466,7.00466,0,0,0-1.20117,2.7085,8.96587,8.96587,0,0,0-.04,3.44141,11.25364,11.25364,0,0,0,1.25,3.70947,9.652,9.652,0,0,0,2.168,2.67236,8.90284,8.90284,0,0,0,2.81152,1.61816,9.32806,9.32806,0,0,0,3.18359.53809,10.03794,10.03794,0,0,0,2.96777-.42236,7.17285,7.17285,0,0,0,2.30078-1.19385.268.268,0,0,1,.18066-.06006.28091.28091,0,0,1,.252.16553l.24219.43994a8.29285,8.29285,0,0,1-2.541,1.374,10.88333,10.88333,0,0,1-6.8291-.11182,9.82763,9.82763,0,0,1-3.09668-1.80811,10.69466,10.69466,0,0,1-2.36328-2.93359,12.16427,12.16427,0,0,1-1.34668-3.9834,9.6909,9.6909,0,0,1,.04883-3.69775A7.67338,7.67338,0,0,1,18.826,12.95169a6.6312,6.6312,0,0,1,2.34473-1.9751,6.91559,6.91559,0,0,1,3.14746-.72754,9.17231,9.17231,0,0,1,2.96582.479,8.67413,8.67413,0,0,1,2.68652,1.46387,9.07852,9.07852,0,0,1,2.09863,2.42822,9.44171,9.44171,0,0,1,1.19336,3.36914,7.9334,7.9334,0,0,1,.06836,2.374,5.09,5.09,0,0,1-.58691,1.84619A3.32118,3.32118,0,0,1,31.614,23.41507,2.90417,2.90417,0,0,1,30.05838,23.85257ZM24.98221,23.045a2.45654,2.45654,0,0,0,.8125-.14746,1.798,1.798,0,0,0,.74414-.52246,3.24667,3.24667,0,0,0,.57813-1.01758,5.87818,5.87818,0,0,0,.31348-1.62939l.28418-3.7002a4.13856,4.13856,0,0,0-.57617-.12158,4.78852,4.78852,0,0,0-.67383-.03857A3.47693,3.47693,0,0,0,24.701,16.313a3.57329,3.57329,0,0,0-1.21289,1.146,4.45157,4.45157,0,0,0-.63574,1.5835,4.91,4.91,0,0,0-.02637,1.772,3.75056,3.75056,0,0,0,.25977.88721,2.55065,2.55065,0,0,0,.45508.707,2.03353,2.03353,0,0,0,.63379.46826A1.82336,1.82336,0,0,0,24.98221,23.045Z"/><line class="d" x1="28.70876" y1="37.08649" x2="30.53613" y2="48.70218"/><line class="d" x1="32.70876" y1="61.08649" x2="34.53613" y2="72.70218"/><line class="d" x1="37.70876" y1="91.08649" x2="39.53613" y2="102.70218"/><path class="a" d="M37.35521,54.67028c.56668,3.41363-1.57923,6.1952-4.793,6.21282a7.3373,7.3373,0,0,1-6.84514-6.149c-.56668-3.41363,1.57923-6.1952,4.793-6.21282A7.3373,7.3373,0,0,1,37.35521,54.67028Z"/><path class="a" d="M44.76475,82.15433c.85,5.12044-2.36884,9.29281-7.18953,9.31923S28.15753,87.37048,27.30751,82.25s2.36884-9.29281,7.18953-9.31923S43.91473,77.03389,44.76475,82.15433Z"/><path class="d" d="M37.35521,54.67028c.56668,3.41363-1.57923,6.1952-4.793,6.21282a7.3373,7.3373,0,0,1-6.84514-6.149c-.56668-3.41363,1.57923-6.1952,4.793-6.21282A7.3373,7.3373,0,0,1,37.35521,54.67028Z"/><path class="a" d="M46.35521,108.67028c.56668,3.41363-1.57923,6.1952-4.793,6.21282a7.3373,7.3373,0,0,1-6.84514-6.149c-.56668-3.41363,1.57923-6.1952,4.793-6.21282A7.3373,7.3373,0,0,1,46.35521,108.67028Z"/><path class="d" d="M46.35521,108.67028c.56668,3.41363-1.57923,6.1952-4.793,6.21282a7.3373,7.3373,0,0,1-6.84514-6.149c-.56668-3.41363,1.57923-6.1952,4.793-6.21282A7.3373,7.3373,0,0,1,46.35521,108.67028Z"/><path class="e" d="M44.76475,82.15433c.85,5.12044-2.36884,9.29281-7.18953,9.31923S28.15753,87.37048,27.30751,82.25s2.36884-9.29281,7.18953-9.31923S43.91473,77.03389,44.76475,82.15433Z"/><polyline class="e" points="40.036 78.888 34.923 85.516 32.036 83.013"/><path class="f" d="M105.95511,72.827v1c4.32446,0,8.46729,3.76259,9.23511,8.38745a7.38234,7.38234,0,0,1-1.43994,6.00178,6.15589,6.15589,0,0,1-4.7688,2.15368l-34.8645.20747c-4.32422,0-8.467-3.76259-9.23486-8.38745A7.38231,7.38231,0,0,1,66.322,76.18815a6.15587,6.15587,0,0,1,4.7688-2.15369l34.82324-.20735.041-1.00012m0,0-.04614.00012-34.824.20736c-4.82056.02642-8.03955,4.19878-7.18945,9.31922v0c.84741,5.10419,5.41772,9.22364,10.22144,9.22364l.04614-.00012,34.82422-.20736c4.82056-.02642,8.03955-4.19878,7.18945-9.31922v0c-.84741-5.10419-5.41772-9.22372-10.22168-9.22364Z"/><path class="c" d="M99.93777,48.41484v1a6.32636,6.32636,0,0,1,5.82788,5.31287,4.53026,4.53026,0,0,1-.886,3.73174,3.77624,3.77624,0,0,1-2.92651,1.31733l-35.8186.21274a6.32636,6.32636,0,0,1-5.82788-5.31287,4.5304,4.5304,0,0,1,.886-3.7318,3.77585,3.77585,0,0,1,2.92627-1.31727l35.79395-.21268.0249-1.00006m0,0-.03076.00008-35.79395.21268c-3.21362.01762-5.35962,2.79919-4.793,6.21281h0a7.34242,7.34242,0,0,0,6.81445,6.14911l.03076-.00008,35.7937-.21268c3.21387-.01761,5.35986-2.79919,4.79321-6.21281h0a7.34236,7.34236,0,0,0-6.81445-6.1491Z"/><path class="a" d="M110.95912,114.77677l-35.79386.21267a7.33729,7.33729,0,0,1-6.84513-6.149h0c-.56668-3.41363,1.57923-6.1952,4.793-6.21282l35.79386-.21267a7.33729,7.33729,0,0,1,6.84513,6.149h0C116.31881,111.97758,114.17291,114.75915,110.95912,114.77677Z"/><path class="c" d="M108.93777,102.41484v1a6.32636,6.32636,0,0,1,5.82788,5.31287,4.53026,4.53026,0,0,1-.886,3.73174,3.77625,3.77625,0,0,1-2.92651,1.31733l-35.8186.21274a6.32636,6.32636,0,0,1-5.82788-5.31287,4.53042,4.53042,0,0,1,.886-3.73181,3.77582,3.77582,0,0,1,2.92627-1.31726l35.79395-.21268.0249-1.00006m0,0-.03076.00008-35.79395.21268c-3.21362.01761-5.35962,2.79919-4.793,6.21281h0a7.34242,7.34242,0,0,0,6.81445,6.14911l.03076-.00009,35.7937-.21268c3.21387-.01761,5.35986-2.79919,4.79321-6.21281h0a7.34236,7.34236,0,0,0-6.81445-6.14911Z"/></svg>