<svg xmlns="http://www.w3.org/2000/svg" viewBox="0 0 108.99994 44.13002"><defs><style>.a,.b{fill:#00a098;}.a{opacity:0.4;}.c{opacity:0.3;}.d,.e{fill:none;stroke-miterlimit:10;}.d{stroke:#afe100;stroke-linecap:round;}.e{stroke:#00a098;}</style></defs><title>optran3_1</title><path class="a" d="M27.81458.61607,100.5484.12325a3.85662,3.85662,0,0,1,3.8257,3.225L108.90432,30.638a3.85662,3.85662,0,0,1-3.78341,4.48813l-72.73382.49281a3.85662,3.85662,0,0,1-3.8257-3.225L24.03117,5.1042A3.85662,3.85662,0,0,1,27.81458.61607Z"/><path class="a" d="M12.39559,10.36348l9.08892-.04983,4.20688,25.342L1.833,35.78645.23035,26.13235C-1.20794,17.46816,4.23862,10.4082,12.39559,10.36348Z"/><path class="a" d="M19.27536,39.278c.44255,2.6659-1.23331,4.8382-3.74315,4.852a5.73013,5.73013,0,0,1-5.34577-4.80213Z"/><path class="a" d="M47.67825,39.12227c.44255,2.6659-1.23331,4.8382-3.74315,4.852a5.73013,5.73013,0,0,1-5.34577-4.80213Z"/><path class="a" d="M60.17552,39.05376c.44255,2.6659-1.23331,4.8382-3.74315,4.852a5.73013,5.73013,0,0,1-5.34577-4.80213Z"/><path class="a" d="M87.32359,38.81086c.44255,2.6659-1.23331,4.8382-3.74315,4.852a5.73013,5.73013,0,0,1-5.34577-4.80213Z"/><path class="a" d="M99.82086,38.74235c.44255,2.6659-1.23331,4.8382-3.74315,4.852a5.73013,5.73013,0,0,1-5.34577-4.80213Z"/><path class="b" d="M100.77271.12208v1a2.60813,2.60813,0,0,1,2.5813,2.18869l4.60962,27.768a2.61705,2.61705,0,0,1-2.56885,3.04587l-73.23169.49551a2.60869,2.60869,0,0,1-2.58179-2.18872L24.97168,4.66356a2.61735,2.61735,0,0,1,2.56909-3.046l73.21777-.49542.01416-1.00006m-.00024,0-.02.00006L27.53394.6176a3.61749,3.61749,0,0,0-3.54883,4.20969l4.60962,27.76788a3.61752,3.61752,0,0,0,3.56836,3.025l.02-.00006,73.21851-.49548a3.61718,3.61718,0,0,0,3.54858-4.20966L104.34058,3.147A3.61693,3.61693,0,0,0,100.77246.12208Z"/><path class="b" d="M20.6377,11.31828l3.875,23.34381-21.83276.11972L1.217,25.96855A13.17889,13.17889,0,0,1,3.80713,15.25361a11.09729,11.09729,0,0,1,8.59375-3.89017l8.23682-.04517m.84692-1.00464-9.08911.04984c-8.157.04471-13.60352,7.10468-12.165,15.76886L1.833,35.78645l23.8584-.1308-4.20679-25.342Z"/><path class="b" d="M18.344,40.28312a3.08911,3.08911,0,0,1-.69849,1.89587,2.74387,2.74387,0,0,1-2.13721.951,4.60291,4.60291,0,0,1-3.98389-2.80954l6.81958-.03735m.9314-1.00513-9.08887.0498A5.734,5.734,0,0,0,15.5083,44.13l.02393-.00006c2.50977-.01376,4.18579-2.18607,3.74316-4.852Z"/><path class="b" d="M46.74683,40.12739a3.08935,3.08935,0,0,1-.69849,1.89594,2.744,2.744,0,0,1-2.13721.951,4.60377,4.60377,0,0,1-3.98389-2.80951l6.81958-.03738m.9314-1.00513-9.08887.04984a5.73419,5.73419,0,0,0,5.32178,4.80219l.02393-.00006c2.50977-.01373,4.18579-2.186,3.74316-4.852Z"/><path class="b" d="M59.24414,40.05888a3.08935,3.08935,0,0,1-.69849,1.89594,2.744,2.744,0,0,1-2.13721.951,4.60325,4.60325,0,0,1-3.98389-2.80951l6.81958-.03738m.9314-1.00513-9.08887.04984a5.734,5.734,0,0,0,5.32178,4.80219l.02393-.00006c2.50977-.01373,4.18579-2.186,3.74316-4.852Z"/><path class="b" d="M86.39209,39.816a3.08921,3.08921,0,0,1-.69849,1.89594,2.744,2.744,0,0,1-2.13721.951,4.60377,4.60377,0,0,1-3.98389-2.80951l6.81958-.03738m.9314-1.00513-9.08887.04984a5.73419,5.73419,0,0,0,5.32178,4.80219l.02393-.00006c2.51-.01376,4.18579-2.18607,3.74316-4.852Z"/><path class="b" d="M98.8894,39.74748a3.08921,3.08921,0,0,1-.69849,1.89594,2.744,2.744,0,0,1-2.13721.951,4.60377,4.60377,0,0,1-3.98389-2.80951l6.81958-.03738m.9314-1.00513-9.08887.04984a5.73419,5.73419,0,0,0,5.32178,4.80219l.02393-.00006c2.51-.01376,4.18579-2.18607,3.74316-4.852Z"/><path class="c" d="M56.8754,6.37778A3.047,3.047,0,0,0,53.87272,3.8892l-20.62049.286A3.00637,3.00637,0,0,0,30.33146,7.699l3.88117,22.22282a2.993,2.993,0,0,0,2.96031,2.48858h.04237l2.24919-.03116.00071.00009.00212-.00018,18.36848-.25475a3.00637,3.00637,0,0,0,2.92077-3.52384ZM52.44059,13.533l-9.7679,12.88154-3.37978.047-.59319-3.39558L48.69712,9.88115l3.098-.043ZM38.36,21.11993,36.42722,10.0516l10.43524-.14494Zm1.185,6.78464,15.36721-.21344.52752,3.02-15.36721.21318Zm4.96234-1.51547L52.78026,15.479,54.66082,26.248ZM51.543,8.39508l-15.36721.21344-.52752-3.02,15.36721-.21318ZM37.19554,30.96419a1.58291,1.58291,0,0,1-1.55925-1.29161L31.75512,7.45047a1.5607,1.5607,0,0,1,1.51688-1.829l.91239-.01262,4.42423,25.33575Zm21.80123-.85024a1.56053,1.56053,0,0,1-1.18074.56424l-.91239.01262L53.95958,13.83329a.71513.71513,0,0,0-.1024-.58878L52.47943,5.35505l1.41307-.0196h.0226a1.556,1.556,0,0,1,1.53665,1.29161l3.88117,22.22211A1.56229,1.56229,0,0,1,58.99677,30.11395Z"/><line class="d" x1="55.4602" y1="0.5" x2="60.23453" y2="27.83873"/><line class="d" x1="39.07395" y1="5.29479" x2="56.25593" y2="5.05645"/><line class="d" x1="41.60502" y1="18.96216" x2="52.04571" y2="5.19137"/><line class="d" x1="46.69624" y1="23.45903" x2="57.13693" y2="9.68824"/><line class="d" x1="42.25684" y1="23.52061" x2="59.43881" y2="23.28227"/><line class="d" x1="42.6716" y1="27.73485" x2="38.27822" y2="0.73834"/><path class="d" d="M37.57333.61972,56.08288.51824a4.49937,4.49937,0,0,1,4.19757,3.77069l3.26373,19.66052A3.06421,3.06421,0,0,1,60.605,27.75928l-18.50955.10147a4.49937,4.49937,0,0,1-4.19757-3.77069L34.63416,4.42954A3.06421,3.06421,0,0,1,37.57333.61972Z"/><line class="e" x1="90.30042" y1="5.54768" x2="94.53963" y2="29.82216"/><line class="e" x1="75.75081" y1="9.80505" x2="91.00696" y2="9.59342"/><line class="e" x1="77.99819" y1="21.94051" x2="87.26865" y2="9.71321"/><line class="e" x1="82.51876" y1="25.93336" x2="91.78921" y2="13.70605"/><line class="e" x1="78.57695" y1="25.98803" x2="93.83309" y2="25.77641"/><line class="e" x1="78.94522" y1="29.72993" x2="75.04428" y2="5.7593"/><path class="e" d="M74.41839,5.654l16.43492-.0901a3.99506,3.99506,0,0,1,3.72708,3.34806l2.89792,17.45688a2.72076,2.72076,0,0,1-2.60973,3.3828l-16.43492.0901a3.99506,3.99506,0,0,1-3.72708-3.34806L71.80866,9.03677A2.72076,2.72076,0,0,1,74.41839,5.654Z"/></svg>