<svg xmlns="http://www.w3.org/2000/svg" viewBox="0 0 91.19289 125.76369"><defs><style>.a{opacity:0.3;}.b,.e{fill:#00a098;}.b{opacity:0.4;}.c{fill:#afe100;}.d,.f{fill:none;stroke-miterlimit:10;}.d{stroke:#afe100;}.f{stroke:#00a098;}</style></defs><title>optran1</title><path class="a" d="M27.8715,108.09249l-.46208.00253c-4.46581.02448-7.44771,3.8897-6.66027,8.6332l.08148.49081c.78744,4.7435,5.046,8.569,9.51185,8.54455l.46208-.00253c4.46581-.02448,7.44771-3.8897,6.66027-8.6332l-.08148-.49081C36.59591,111.89353,32.33731,108.068,27.8715,108.09249Z"/><path class="a" d="M52.06671,107.95984l-.46208.00253c-4.46581.02448-7.44771,3.8897-6.66027,8.6332l.08148.49081c.78744,4.7435,5.046,8.569,9.51185,8.54455l.46208-.00253c4.46581-.02448,7.44771-3.8897,6.66027-8.6332l-.08148-.49081C60.79112,111.76088,56.53252,107.93536,52.06671,107.95984Z"/><path class="a" d="M23.60524,82.39276l-.46208.00253c-4.46581.02448-7.44771,3.8897-6.66027,8.6332l.08148.49081c.78744,4.7435,5.046,8.569,9.51185,8.54455l.46208-.00253c4.46581-.02448,7.44771-3.8897,6.66027-8.6332l-.08148-.49081C32.32965,86.19381,28.071,82.36828,23.60524,82.39276Z"/><path class="a" d="M47.80044,82.26012l-.46208.00253c-4.46581.02448-7.44771,3.8897-6.66027,8.6332l.08148.49081c.78744,4.7435,5.046,8.569,9.51185,8.54455l.46208-.00253c4.46581-.02448,7.44771-3.8897,6.66027-8.6332l-.08148-.49081C56.52485,86.06116,52.26625,82.23564,47.80044,82.26012Z"/><path class="a" d="M71.99565,82.12748l-.46208.00253c-4.46581.02448-7.44771,3.8897-6.66027,8.6332l.08148.49081c.78744,4.7435,5.046,8.569,9.51185,8.54455l.46208-.00253c4.46581-.02448,7.44771-3.8897,6.66027-8.6332L81.5075,90.672C80.72006,85.92852,76.46145,82.103,71.99565,82.12748Z"/><path class="a" d="M19.339,56.693l-.46208.00253c-4.46581.02448-7.44771,3.8897-6.66027,8.6332l.08148.49081c.78744,4.7435,5.046,8.569,9.51185,8.54455l.46208-.00253c4.46581-.02448,7.44771-3.8897,6.66027-8.6332l-.08148-.49081C28.06338,60.49408,23.80478,56.66856,19.339,56.693Z"/><path class="a" d="M43.53417,56.5604l-.46208.00253c-4.46581.02448-7.44771,3.8897-6.66027,8.6332l.08148.49081c.78744,4.7435,5.046,8.569,9.51185,8.54455l.46208-.00253c4.46581-.02448,7.44771-3.8897,6.66027-8.6332l-.08148-.49081C52.25859,60.36144,48,56.53592,43.53417,56.5604Z"/><path class="a" d="M67.72938,56.42776l-.46208.00253c-4.46581.02448-7.44771,3.8897-6.66027,8.6332l.08148.49081c.78744,4.7435,5.046,8.569,9.51185,8.54455l.46208-.00253c4.46581-.02448,7.44771-3.8897,6.66027-8.6332l-.08148-.49081C76.45379,60.2288,72.19519,56.40328,67.72938,56.42776Z"/><path class="a" d="M57.58144,45.65512l-37.259.20426c-9.3376.05119-18.242-7.94763-19.88842-17.86587L.26369,26.96728C-1.38278,17.049,4.85211,8.96722,14.18972,8.916l37.259-.20426c9.3376-.05119,18.242,7.94763,19.88842,17.86587l.17036,1.02624C73.15394,37.52212,66.919,45.60393,57.58144,45.65512Z"/><path class="a" d="M76.26191,107.8272l-.46208.00253c-4.46581.02448-7.44771,3.8897-6.66027,8.6332l.08148.49081c.78744,4.7435,5.046,8.569,9.51185,8.54455l.46208-.00253c4.46581-.02448,7.44771-3.8897,6.66027-8.6332l-.08148-.49081C84.98632,111.62824,80.72772,107.80272,76.26191,107.8272Z"/><path class="b" d="M65.793,37.44359l-37.259.20426c-9.3376.05119-18.242-7.94763-19.88842-17.86587l-.17036-1.02624C6.82875,8.83751,13.06365.75569,22.40125.7045l37.259-.20426c9.3376-.05119,18.242,7.94763,19.88842,17.86587l.17036,1.02624C81.36547,29.31059,75.13057,37.3924,65.793,37.44359Z"/><path class="c" d="M24.52252,13.04761l-.37806.00207c-3.65384.02-6.09358,3.18248-5.44931,7.06353l.06666.40157c.64427,3.881,4.12858,7.011,7.78243,6.991l.37806-.00207c3.65384-.02,6.09358-3.18248,5.44931-7.06353l-.06666-.40157C31.66068,16.15755,28.17636,13.02758,24.52252,13.04761Z"/><path class="c" d="M42.66892,12.94813l-.37806.00207c-3.65384.02-6.09358,3.18248-5.44931,7.06353l.06666.40157c.64427,3.881,4.12858,7.011,7.78243,6.991l.37806-.00207c3.65384-.02,6.09358-3.18248,5.44931-7.06353l-.06666-.40157C49.80708,16.05807,46.32277,12.9281,42.66892,12.94813Z"/><path class="c" d="M64.03994,29.42239a11.31639,11.31639,0,0,1-3.06543-.88037,12.12069,12.12069,0,0,1-2.752-1.6709l.44043-1.623a.67483.67483,0,0,1,.22168-.35352.60276.60276,0,0,1,.39258-.14062,1.373,1.373,0,0,1,.66309.21436q.38818.21753.88867.51172c.334.19678.7041.39258,1.11426.58838a5.32985,5.32985,0,0,0,1.36816.42773l-1.58008-6.39062q-.98877-.27539-1.99121-.65137a8.69218,8.69218,0,0,1-1.9082-1.00537,7.4208,7.4208,0,0,1-1.64941-1.5957,7.97214,7.97214,0,0,1-1.21289-2.42676,5.95089,5.95089,0,0,1-.2998-2.12793,4.11481,4.11481,0,0,1,.51953-1.86523,3.75465,3.75465,0,0,1,1.37207-1.36426,4.50565,4.50565,0,0,1,2.293-.55762L58.4081,6.69533a.86888.86888,0,0,1,.05273-.62256.52116.52116,0,0,1,.50586-.28027l1.14844-.01318L60.80459,8.584a8.606,8.606,0,0,1,2.58789.82861,13.23844,13.23844,0,0,1,2.1377,1.36377l-.33887,1.30566a1.13134,1.13134,0,0,1-.21582.43164.50053.50053,0,0,1-.38379.14746,1.27257,1.27257,0,0,1-.49219-.13086q-.30322-.13257-.69922-.3208-.39844-.189-.86523-.3833a6.18974,6.18974,0,0,0-1.00293-.31787l1.46191,5.9082q1.01074.30322,2.02344.67139a9.34573,9.34573,0,0,1,1.91895.9585A7.208,7.208,0,0,1,68.57314,20.523a6.70787,6.70787,0,0,1,1.16113,2.2251,7.74732,7.74732,0,0,1,.41016,2.4917,4.58584,4.58584,0,0,1-.48047,2.06641,3.70318,3.70318,0,0,1-1.38379,1.46729,5.26022,5.26022,0,0,1-2.29785.69824l.52539,2.09668a.88126.88126,0,0,1-.05762.60889.51831.51831,0,0,1-.50488.28467l-1.14844.01318Zm-6.2334-15.353a3.38841,3.38841,0,0,0,.47363.95361,3.64237,3.64237,0,0,0,.69727.72949,5.13078,5.13078,0,0,0,.88574.5625,8.77241,8.77241,0,0,0,1.02832.439L59.581,11.47317a3.17793,3.17793,0,0,0-1.0791.34863,1.679,1.679,0,0,0-.62207.58691,1.54186,1.54186,0,0,0-.21484.76758A2.68449,2.68449,0,0,0,57.80654,14.06936ZM66.954,23.32473a3.2394,3.2394,0,0,0-.47656-.9458,3.52465,3.52465,0,0,0-.71191-.71436,4.81458,4.81458,0,0,0-.90039-.5332,10.02725,10.02725,0,0,0-1.04395-.40332l1.4375,5.7915a2.15821,2.15821,0,0,0,1.69922-1.042A2.798,2.798,0,0,0,66.954,23.32473Z"/><path class="d" d="M65.793,37.44359l-37.259.20426c-9.3376.05119-18.242-7.94763-19.88842-17.86587l-.17036-1.02624C6.82875,8.83751,13.06365.75569,22.40125.7045l37.259-.20426c9.3376-.05119,18.242,7.94763,19.88842,17.86587l.17036,1.02624C81.36547,29.31059,75.13057,37.3924,65.793,37.44359Z"/><path class="b" d="M33.083,102.881l-.46208.00253c-4.46581.02448-7.44771,3.8897-6.66027,8.6332l.08148.49081c.78744,4.7435,5.046,8.569,9.51185,8.54454l.46208-.00253c4.46581-.02448,7.44771-3.8897,6.66027-8.6332l-.08148-.49081C41.80744,106.682,37.54884,102.85647,33.083,102.881Z"/><path class="b" d="M57.27824,102.74831l-.46208.00253c-4.46581.02448-7.44771,3.8897-6.66027,8.6332l.08148.49081c.78744,4.7435,5.046,8.569,9.51185,8.54455l.46208-.00253c4.46581-.02448,7.44771-3.8897,6.66027-8.6332l-.08148-.49081C66.00265,106.54935,61.744,102.72383,57.27824,102.74831Z"/><path class="b" d="M81.47344,102.61567l-.46208.00253c-4.46581.02448-7.44771,3.8897-6.66027,8.6332l.08148.49081c.78744,4.7435,5.046,8.569,9.51185,8.54455l.46208-.00253c4.46581-.02448,7.44771-3.8897,6.66027-8.6332l-.08148-.49081C90.19785,106.41671,85.93925,102.59119,81.47344,102.61567Z"/><path class="b" d="M28.81677,77.18123l-.46208.00253c-4.46581.02448-7.44771,3.8897-6.66027,8.6332l.08148.49081c.78744,4.7435,5.046,8.569,9.51185,8.54455l.46208-.00253c4.46581-.02448,7.44771-3.8897,6.66027-8.6332l-.08148-.49081C37.54118,80.98227,33.28258,77.15675,28.81677,77.18123Z"/><path class="b" d="M53.012,77.04859l-.46208.00253c-4.46581.02448-7.44771,3.8897-6.66027,8.6332l.08148.49081c.78744,4.7435,5.046,8.569,9.51185,8.54455l.46208-.00253c4.46581-.02448,7.44771-3.8897,6.66027-8.6332l-.08148-.49081C61.73638,80.84963,57.47778,77.02411,53.012,77.04859Z"/><path class="b" d="M77.20718,76.916l-.46208.00253c-4.46581.02448-7.44771,3.8897-6.66027,8.6332l.08148.49081c.78744,4.7435,5.046,8.569,9.51185,8.54455l.46208-.00253c4.46581-.02448,7.44771-3.8897,6.66027-8.6332L86.719,85.4605C85.93159,80.717,81.673,76.89147,77.20718,76.916Z"/><path class="b" d="M24.5505,51.48151l-.46208.00253c-4.46581.02448-7.44771,3.8897-6.66027,8.6332l.08148.49081c.78744,4.7435,5.046,8.569,9.51185,8.54455l.46208-.00253c4.46581-.02448,7.44771-3.8897,6.66027-8.6332l-.08148-.49081C33.27491,55.28255,29.01631,51.457,24.5505,51.48151Z"/><path class="b" d="M48.74571,51.34887l-.46208.00253c-4.46581.02448-7.44771,3.8897-6.66027,8.6332l.08148.49081c.78744,4.7435,5.046,8.569,9.51185,8.54455l.46208-.00253c4.46581-.02448,7.44771-3.8897,6.66027-8.6332l-.08148-.49081C57.47012,55.14991,53.21151,51.32439,48.74571,51.34887Z"/><path class="b" d="M72.94091,51.21623l-.46208.00253c-4.46581.02448-7.44771,3.8897-6.66027,8.6332l.08148.49081c.78744,4.7435,5.046,8.569,9.51185,8.54455l.46208-.00253c4.46581-.02448,7.44771-3.8897,6.66027-8.6332l-.08148-.49081C81.66532,55.01727,77.40672,51.19175,72.94091,51.21623Z"/><path class="e" d="M33.12588,102.88082v1c3.97168,0,7.77686,3.458,8.48242,7.70856l.08154.49066a6.76535,6.76535,0,0,1-1.31787,5.50055,5.62974,5.62974,0,0,1-4.36133,1.96893l-.49927.00266c-3.97192,0-7.7771-3.458-8.48267-7.70856l-.08154-.49066a6.76535,6.76535,0,0,1,1.31787-5.50055,5.62974,5.62974,0,0,1,4.36133-1.96893l.4624-.00256.03711-1.00009m0,0-.04272.00012-.46216.00253c-4.46582.02451-7.44775,3.88971-6.6604,8.63321l.08154.49081c.78491,4.72815,5.01929,8.54468,9.46924,8.54468l.04272-.00012.46191-.00253c4.46582-.02451,7.44775-3.88971,6.6604-8.63321l-.08154-.49081c-.78491-4.72815-5.01929-8.54468-9.469-8.54468Z"/><path class="e" d="M57.32094,102.74819v1c3.97168,0,7.7771,3.458,8.48267,7.70807l.0813.49121a6.765,6.765,0,0,1-1.31763,5.50043,5.6292,5.6292,0,0,1-4.36133,1.969l-.49951.00266c-3.97168,0-7.77686-3.458-8.48242-7.70853l-.08154-.49066a6.76554,6.76554,0,0,1,1.31787-5.50067,5.62886,5.62886,0,0,1,4.36108-1.96881l.4624-.00256.03711-1.00009m0,0-.04272.00012-.46216.00253c-4.46582.02448-7.44751,3.88971-6.66016,8.63321l.08154.49081c.78491,4.72815,5.019,8.54465,9.469,8.54465l.04272-.00012.46216-.00253c4.46582-.02448,7.44775-3.88968,6.66016-8.63318l-.0813-.49081c-.78516-4.72815-5.01929-8.54468-9.46924-8.54468Z"/><path class="e" d="M81.51626,102.61556v1c3.97168,0,7.77686,3.458,8.48242,7.70853l.08154.49066a6.76541,6.76541,0,0,1-1.31787,5.50058,5.62971,5.62971,0,0,1-4.36133,1.9689l-.49927.00266c-3.97168,0-7.7771-3.458-8.48267-7.70856l-.08154-.49066a6.76535,6.76535,0,0,1,1.31787-5.50055,5.62971,5.62971,0,0,1,4.36133-1.9689l.4624-.00256.03711-1.00009m0,0-.04272.00012-.46216.00253c-4.46582.02448-7.44775,3.88968-6.6604,8.63318l.08154.49081c.78516,4.72815,5.01929,8.54468,9.46924,8.54468l.04272-.00012.46191-.00253c4.46582-.02448,7.44775-3.88971,6.6604-8.63321l-.08154-.49081c-.78491-4.72815-5.019-8.54465-9.469-8.54465Z"/><path class="e" d="M28.85952,77.18111v1c3.97168,0,7.7771,3.458,8.48242,7.70856l.08154.49069a6.76511,6.76511,0,0,1-1.31763,5.50046,5.6292,5.6292,0,0,1-4.36133,1.969l-.49951.00266c-3.97168,0-7.7771-3.458-8.48267-7.708l-.0813-.49121a6.76511,6.76511,0,0,1,1.31763-5.50046,5.62957,5.62957,0,0,1,4.36133-1.969l.4624-.00256.03711-1.00009m0,0-.04272.00012-.46216.00253c-4.46582.02448-7.44775,3.88971-6.66016,8.63321l.0813.49081c.78516,4.72815,5.01929,8.54465,9.46924,8.54465l.04272-.00012.46216-.00253c4.46582-.02448,7.44775-3.88968,6.66016-8.63321l-.08154-.49078c-.78491-4.72818-5.019-8.54468-9.469-8.54468Z"/><path class="e" d="M53.05459,77.04848v1c3.97192,0,7.7771,3.458,8.48267,7.70853l.08154.49066a6.76541,6.76541,0,0,1-1.31787,5.50058,5.62971,5.62971,0,0,1-4.36133,1.9689l-.49927.00266c-3.97192,0-7.7771-3.458-8.48267-7.70856l-.08154-.49066A6.76535,6.76535,0,0,1,48.194,80.02a5.62971,5.62971,0,0,1,4.36133-1.9689l.46216-.00256.03711-1.00009m0,0-.04272.00012-.46191.00253c-4.46582.02448-7.44775,3.88968-6.6604,8.63318l.08154.49081c.78491,4.72815,5.01929,8.54468,9.46924,8.54468l.04272-.00012.46191-.00253c4.46582-.02448,7.44775-3.88971,6.6604-8.63321l-.08154-.49081c-.78491-4.72815-5.01929-8.54465-9.46924-8.54465Z"/><path class="e" d="M77.2499,76.91582v1c3.97168,0,7.7771,3.458,8.48267,7.70807l.0813.49121a6.765,6.765,0,0,1-1.31763,5.50043,5.6292,5.6292,0,0,1-4.36133,1.969l-.49951.00266c-3.97168,0-7.7771-3.458-8.48242-7.70853l-.08154-.49072a6.76511,6.76511,0,0,1,1.31763-5.50046,5.6293,5.6293,0,0,1,4.36133-1.969l.4624-.00256.03711-1.00009m0,0-.04272.00012-.46216.00253c-4.46582.02448-7.44775,3.88971-6.66016,8.63321l.08154.49081c.78491,4.72815,5.019,8.54465,9.469,8.54465l.04272-.00012.46216-.00253c4.46582-.02448,7.44775-3.88968,6.66016-8.63318l-.0813-.49081c-.78516-4.72815-5.01929-8.54468-9.46924-8.54468Z"/><path class="e" d="M24.59316,51.48138v1c3.97168,0,7.7771,3.458,8.48267,7.70856l.08154.49066a6.76541,6.76541,0,0,1-1.31787,5.50058,5.62971,5.62971,0,0,1-4.36133,1.9689l-.49951.00266c-3.97168,0-7.77686-3.458-8.48242-7.70856l-.08154-.49066A6.76535,6.76535,0,0,1,19.73256,54.453,5.62974,5.62974,0,0,1,24.09389,52.484l.46216-.00256.03711-1.00009m0,0-.04272.00012-.46191.00253c-4.46582.02451-7.44775,3.88971-6.6604,8.63321l.08154.49081c.78491,4.72815,5.019,8.54468,9.469,8.54468l.04272-.00012.46216-.00253c4.46582-.02448,7.44775-3.88971,6.6604-8.63321l-.08154-.49081c-.78516-4.72815-5.01929-8.54468-9.46924-8.54468Z"/><path class="e" d="M48.78847,51.34875v1c3.97168,0,7.77686,3.458,8.48242,7.70856l.08154.49066a6.76554,6.76554,0,0,1-1.31787,5.50067,5.62894,5.62894,0,0,1-4.36108,1.96878l-.49951.00266c-3.97168,0-7.7771-3.458-8.48267-7.708l-.0813-.49121a6.76511,6.76511,0,0,1,1.31763-5.50046,5.62957,5.62957,0,0,1,4.36133-1.969l.4624-.00256.03711-1.00009m0,0-.04272.00012-.46216.00253c-4.46582.02448-7.44775,3.88971-6.66016,8.63321l.0813.49081c.78516,4.72815,5.01929,8.54465,9.46924,8.54465L51.2167,69.02l.46216-.00253c4.46582-.02448,7.44751-3.88968,6.66016-8.63318l-.08154-.49081c-.78491-4.72815-5.019-8.54468-9.469-8.54468Z"/><path class="e" d="M72.98354,51.21612v1c3.97192,0,7.77734,3.458,8.48267,7.70853l.08154.49066a6.76541,6.76541,0,0,1-1.31787,5.50058,5.62971,5.62971,0,0,1-4.36133,1.9689l-.49927.00266c-3.97192,0-7.7771-3.458-8.48267-7.70856l-.08154-.49066a6.76535,6.76535,0,0,1,1.31787-5.50055,5.62971,5.62971,0,0,1,4.36133-1.9689l.46216-.00256.03711-1.00009m0,0-.04272.00012-.46191.00253c-4.46582.02448-7.44775,3.88968-6.6604,8.63318l.08154.49081c.78491,4.72815,5.01929,8.54468,9.46924,8.54468l.04272-.00012.46191-.00253c4.46582-.02448,7.44775-3.88971,6.6604-8.63321l-.08154-.49081c-.78491-4.72815-5.01929-8.54465-9.46924-8.54465Z"/><polyline class="f" points="58.452 79.299 63.016 72.975 74.797 72.91 75.51 69.083"/><polyline class="f" points="60.607 92.28 67.261 98.543 79.042 98.479 81.354 102.289"/><polyline class="f" points="48.623 78.353 41.969 73.09 30.187 73.154 28.875 69.344"/><polyline class="f" points="50.777 93.334 46.213 98.659 34.432 98.723 33.72 102.55"/></svg>