<svg xmlns="http://www.w3.org/2000/svg" viewBox="0 0 105.58687 92.02689"><defs><style>.a,.c{fill:#00a098;}.a{opacity:0.4;}.b,.e{fill:none;stroke-miterlimit:10;}.b{stroke:#00a098;}.d{opacity:0.3;}.e{stroke:#afe100;}.f{fill:#afe100;}</style></defs><title>optran2</title><path class="a" d="M.911,28.23688C-1.18976,15.58223,4.175,8.62829,12.20947,8.58424l67.31615-.36906c8.03447-.044,15.69615,6.83848,17.79689,19.49313Z"/><path class="b" d="M97.32251,27.70831.911,28.23688"/><path class="c" d="M79.60264,9.215c7.519,0,14.71875,6.52106,16.04932,14.53653l8.72144,52.53781a12.96656,12.96656,0,0,1-2.5481,10.542,10.91521,10.91521,0,0,1-8.45313,3.82635l-67.31592.369-.07153.00018c-7.51929,0-14.71924-6.52106-16.0498-14.5365L1.21348,23.95255a12.96638,12.96638,0,0,1,2.5481-10.5419A10.91523,10.91523,0,0,1,12.21494,9.5842l67.31592-.369.07178-.00018m-.00024-1-.07666.00021-67.31616.369C4.17491,8.6283-1.18984,15.58221.22691,24.1163L8.94834,76.65414c1.41235,8.507,9.02979,15.37274,17.03638,15.37274l.07666-.00021,67.31616-.369c8.03442-.044,13.39917-6.998,11.98242-15.53207L96.63853,23.58774C95.22618,15.08075,87.609,8.21481,79.6024,8.215Z"/><path class="c" d="M15.22373.319v1A3.30414,3.30414,0,0,1,18.212,4.06976L19.58018,12.311a2.23391,2.23391,0,0,1-.42432,1.84012,1.77682,1.77682,0,0,1-1.40283.62033,3.30417,3.30417,0,0,1-2.98853-2.75073L13.39634,3.77948a2.23391,2.23391,0,0,1,.42432-1.84012,1.76881,1.76881,0,0,1,1.39014-.62027L15.22373.319m-.00024,0-.01782.00006a2.91483,2.91483,0,0,0-2.7959,3.62415l1.36816,8.24124a4.28294,4.28294,0,0,0,3.9751,3.587l.01782-.00006a2.91483,2.91483,0,0,0,2.7959-3.62415L19.19859,3.906A4.28291,4.28291,0,0,0,15.22349.319Z"/><path class="c" d="M29.77159.23929v1A3.30414,3.30414,0,0,1,32.75987,3.99l1.36792,8.24124a2.234,2.234,0,0,1-.42432,1.84015,1.77689,1.77689,0,0,1-1.40283.6203,3.30417,3.30417,0,0,1-2.98853-2.75073L27.94395,3.69974a2.23462,2.23462,0,0,1,.42432-1.84,1.76946,1.76946,0,0,1,1.39038-.62036L29.77159.23929m-.00024,0-.01782.00006h-.00024a2.91493,2.91493,0,0,0-2.7959,3.62415l1.36816,8.24121a4.28316,4.28316,0,0,0,3.9751,3.587l.01782-.00006a2.91481,2.91481,0,0,0,2.7959-3.62415L33.74644,3.82626a4.28313,4.28313,0,0,0-3.9751-3.587Z"/><path class="c" d="M44.31919.15952v1a3.30414,3.30414,0,0,1,2.98828,2.75073l1.36816,8.24124a2.23391,2.23391,0,0,1-.42432,1.84012,1.77691,1.77691,0,0,1-1.40283.62033,3.30445,3.30445,0,0,1-2.98877-2.75073L42.4918,3.62a2.23391,2.23391,0,0,1,.42432-1.84012,1.76872,1.76872,0,0,1,1.39014-.62027L44.31919.15952m-.00024,0-.01782.00006a2.91483,2.91483,0,0,0-2.7959,3.62415l1.36792,8.24121a4.28319,4.28319,0,0,0,3.97534,3.587l.01782-.00006a2.91483,2.91483,0,0,0,2.7959-3.62415L48.294,3.74649a4.28291,4.28291,0,0,0-3.9751-3.587Z"/><path class="c" d="M58.8668.07977v1a3.30439,3.30439,0,0,1,2.98853,2.7507l1.36792,8.24124a2.23385,2.23385,0,0,1-.42432,1.84012,1.77682,1.77682,0,0,1-1.40283.62033,3.30417,3.30417,0,0,1-2.98853-2.75073L57.03941,3.54019a2.23388,2.23388,0,0,1,.42432-1.84012,1.76879,1.76879,0,0,1,1.39014-.62024L58.8668.07977m-.00024,0-.01782.00006a2.9148,2.9148,0,0,0-2.7959,3.62411L57.421,11.94519a4.28294,4.28294,0,0,0,3.9751,3.587l.01782-.00006a2.91482,2.91482,0,0,0,2.7959-3.62415L62.8419,3.66675a4.28316,4.28316,0,0,0-3.97534-3.587Z"/><path class="c" d="M73.41465,0V1a3.30414,3.30414,0,0,1,2.98828,2.75073L77.7711,11.992a2.23455,2.23455,0,0,1-.42432,1.84,1.77758,1.77758,0,0,1-1.40308.62045,3.3042,3.3042,0,0,1-2.98853-2.75076L71.587,3.46045a2.23455,2.23455,0,0,1,.42432-1.84,1.76948,1.76948,0,0,1,1.39038-.62039L73.41465,0m-.00024,0-.01782.00006a2.915,2.915,0,0,0-2.79614,3.62415l1.36816,8.24121a4.28316,4.28316,0,0,0,3.9751,3.587l.01782-.00006a2.915,2.915,0,0,0,2.79614-3.62415L77.38951,3.587A4.28313,4.28313,0,0,0,73.41441,0Z"/><path class="d" d="M96.80308,56.53159a5.221,5.221,0,0,0-2.39355-3.4248,10.03854,10.03854,0,0,0-3.84473-.92187,37.85564,37.85564,0,0,0-6.47949.23584c-4.17187.36816-8.89648.78516-9.84277-1.16895a1.54056,1.54056,0,0,1,.29-1.20947c.88477-1.2666,3.40234-2.12793,5.50391-2.41943,3.05664-.42432,6.91895-1.28467,7.96973-2.97461a1.84355,1.84355,0,0,0,.27344-.80518l.03125-.00482-.03027-.19568a1.85907,1.85907,0,0,0-.08252-.53247L85.03819,22.67288l-.49463.07666-.06006-.389-8.54956,4.88281,9.52783,4.716,1.34106,8.67377c-5.86743-7.13885-25.28-9.20673-37.09155-9.79681-.60937-.03027-1.251-.06787-1.916-.10693-7.0625-.41455-16.73633-.98291-19.62012,5.21191-2.35742,5.06592.7627,7.57275,3.27051,9.58691a11.32964,11.32964,0,0,1,2.52246,2.45166,15.81,15.81,0,0,1,2.57129,9.36865,2.9699,2.9699,0,0,1-.89844,2.2666,7.73343,7.73343,0,0,1-3.48047,1.06836,8.83709,8.83709,0,0,1-3.29883-.05371,15.08149,15.08149,0,0,0-2.92285-.25732c-2.50684.01379-4.22852,1.10449-4.88379,3.064L17.28941,42.74008l-.49268.08942-.08325-.45721-9.31323,9.457,10.89819,2.045,2.533,13.92145.09668-.01758a10.05377,10.05377,0,0,0,1.2998,3.28906c3.71582,5.87061,5.61133,8,13.86914,10.74951a27.08975,27.08975,0,0,0,7.63965.78418c3.42578,0,7.16211-.24219,10.10352-.43262.73242-.04736,1.40918-.09131,2.00879-.12646a15.248,15.248,0,0,0,5.1084-.93555c2.68652-1.18213,3.501-3.44189,4.29-5.62793.64844-1.79883,1.26172-3.49854,2.86621-4.66211,3.02539-2.19482,8.4248-1.6626,11.373-1.1499,1.26855.22021,2.55957.49707,3.80762.76465a43.45728,43.45728,0,0,0,8.80859,1.2666,6.34,6.34,0,0,0,3.80078-.85205,3.73711,3.73711,0,0,0,1.35254-2.4375A24.23454,24.23454,0,0,0,96.80308,56.53159Zm-.52441,11.666a2.81355,2.81355,0,0,1-.96094,1.8374,5.49871,5.49871,0,0,1-3.13965.6626h-.07129a42.716,42.716,0,0,1-8.60254-1.24414c-1.25781-.27-2.55859-.54883-3.8457-.77246-3.10547-.53906-8.80859-1.084-12.13281,1.32568-1.85254,1.34473-2.54785,3.27-3.21875,5.13281-.75,2.07861-1.459,4.042-3.752,5.05176a14.463,14.463,0,0,1-4.76465.85254c-.60156.03516-1.28027.0791-2.01465.127-5.15332.333-13.77441.89258-17.3623-.30322-8.19727-2.729-9.82813-4.78662-13.33984-10.335a8.64459,8.64459,0,0,1-1.11719-6.66162c.61133-2.05029,2.50586-2.49023,3.98828-2.49854a15.79178,15.79178,0,0,1,2.752.24365,9.92541,9.92541,0,0,0,3.6123.05664A8.38775,8.38775,0,0,0,36.27476,60.389a3.89777,3.89777,0,0,0,1.2627-2.97705,16.80086,16.80086,0,0,0-2.72168-9.9624,11.98485,11.98485,0,0,0-2.74414-2.70117c-2.58008-2.07227-5.0166-4.02979-2.99023-8.38525,2.59766-5.58008,11.88086-5.03418,18.65527-4.63574.668.03955,1.3125.07715,1.92383.10791,10.29614.51416,34.53174,2.66687,37.56274,11.51666l.05933.38367a.83734.83734,0,0,1-.126.38483c-.64062,1.03076-3.35352,1.97021-7.25684,2.51221-2.251.312-5.05859,1.22119-6.1875,2.83691a2.522,2.522,0,0,0-.43652,2.04492l.03125.09766c1.18457,2.65869,6.10547,2.22363,10.86621,1.80469a37.084,37.084,0,0,1,6.292-.23682,9.3015,9.3015,0,0,1,3.45605.7998,4.26861,4.26861,0,0,1,1.9209,2.82617A23.25191,23.25191,0,0,1,96.27867,68.1976Z"/><path class="e" d="M43.25508,74.34217c-8.09374-2.695-9.93963-4.75159-13.60436-10.54255A9.14515,9.14515,0,0,1,28.47679,56.728c.63478-2.12691,2.4913-2.84489,4.46521-2.85572,3.008-.01649,3.41021.73789,6.29263.30584A7.96433,7.96433,0,0,0,42.957,53.00221a3.4362,3.4362,0,0,0,1.08174-2.62195,16.31285,16.31285,0,0,0-2.64727-9.66561c-1.98345-3.169-8.86476-4.89811-5.76272-11.56243,3.00449-6.45477,14.10962-5.1633,21.05728-4.81623,12.6749.63317,35.07761,3.02484,38.03213,11.90689.76894,2.31163-4.61976,3.45048-7.75014,3.88481s-6.70895,1.95294-6.20433,4.28087c1.57392,3.53042,11.636.75966,16.75171,1.27386a9.55932,9.55932,0,0,1,3.64973.861,4.75048,4.75048,0,0,1,2.15761,3.12558,23.87861,23.87861,0,0,1,.44567,11.63365,3.26573,3.26573,0,0,1-1.15752,2.13784,6.20752,6.20752,0,0,1-3.50578.75711c-4.19737-.02-8.34945-1.29732-12.532-2.024s-8.96665-.78428-11.75339,1.23777c-3.76739,2.73362-2.46331,8.21258-7.06339,10.23744a14.74606,14.74606,0,0,1-4.9362.89419C57.80022,74.83742,47.43769,75.73486,43.25508,74.34217Z"/><line class="e" x1="94.66295" y1="36.44225" x2="91.39004" y2="15.2766"/><polygon class="f" points="91.33 14.888 82.78 19.77 92.856 24.758 91.33 14.888"/><line class="e" x1="27.96258" y1="59.06809" x2="23.43529" y2="34.19092"/><polygon class="f" points="23.352 33.734 14.039 43.191 25.463 45.335 23.352 33.734"/></svg>