<svg xmlns="http://www.w3.org/2000/svg" viewBox="0 0 76 8.64697"><defs><style>.a{fill:#00a098;}</style></defs><title>scroll</title><path class="a" d="M25.76758,8.77246a3.69539,3.69539,0,0,0,1.87109.52783c1.06738,0,1.69141-.56348,1.69141-1.37939,0-.75537-.43262-1.187-1.52344-1.60693-1.31934-.46777-2.13477-1.15137-2.13477-2.29053a2.327,2.327,0,0,1,2.61426-2.19482,3.67689,3.67689,0,0,1,1.78711.39551l-.28809.85156A3.21793,3.21793,0,0,0,28.25,2.69189c-1.10352,0-1.52344.65967-1.52344,1.21143,0,.75537.49219,1.12744,1.60742,1.55908,1.36719.52783,2.06348,1.1875,2.06348,2.37451,0,1.24756-.92383,2.32715-2.83105,2.32715a4.17361,4.17361,0,0,1-2.0625-.51611Z" transform="translate(0 -1.52881)"/><path class="a" d="M36.002,9.82813a3.88934,3.88934,0,0,1-1.668.33594,2.75736,2.75736,0,0,1-2.88965-2.9624A2.94915,2.94915,0,0,1,34.5625,4.11914a3.52773,3.52773,0,0,1,1.46289.2998l-.24023.81543A2.448,2.448,0,0,0,34.5625,4.959a2.0085,2.0085,0,0,0-2.05078,2.19434,1.99015,1.99015,0,0,0,2.01465,2.1709,2.99836,2.99836,0,0,0,1.29492-.2876Z" transform="translate(0 -1.52881)"/><path class="a" d="M37.24023,6.05029c0-.68359-.0127-1.27148-.04883-1.811h.92383l.03613,1.13916h.04785a1.74145,1.74145,0,0,1,1.60742-1.271,1.14752,1.14752,0,0,1,.2998.03564v.99561a1.59243,1.59243,0,0,0-.36035-.03613,1.48065,1.48065,0,0,0-1.415,1.35547,3.02959,3.02959,0,0,0-.04785.4917v3.09424h-1.043Z" transform="translate(0 -1.52881)"/><path class="a" d="M46.29688,7.09375a2.837,2.837,0,0,1-2.89062,3.082A2.75949,2.75949,0,0,1,40.624,7.18945a2.83373,2.83373,0,0,1,2.87793-3.082A2.749,2.749,0,0,1,46.29688,7.09375Zm-4.60547.05957c0,1.27148.73145,2.231,1.7627,2.231,1.00781,0,1.7627-.94727,1.7627-2.25488,0-.9834-.49121-2.23047-1.73828-2.23047C42.23047,4.89893,41.69141,6.05029,41.69141,7.15332Z" transform="translate(0 -1.52881)"/><path class="a" d="M47.63184,1.52881h1.05469v8.51514H47.63184Z" transform="translate(0 -1.52881)"/><path class="a" d="M50.46387,1.52881h1.05469v8.51514H50.46387Z" transform="translate(0 -1.52881)"/><path class="a" d="M1.87988,4.16406A1.8799,1.8799,0,1,0,3.684,6.54395H21v-1H3.684A1.87482,1.87482,0,0,0,1.87988,4.16406Z" transform="translate(0 -1.52881)"/><path class="a" d="M74.12012,4.16406A1.87482,1.87482,0,0,0,72.316,5.54395H55v1H72.316a1.87639,1.87639,0,1,0,1.80408-2.37988Z" transform="translate(0 -1.52881)"/></svg>