<svg xmlns="http://www.w3.org/2000/svg" viewBox="0 0 36.673 29.79416"><defs><style>.a{fill:#004456;}</style></defs><title>twitter</title><path class="a" d="M36.673,3.52214a15.03,15.03,0,0,1-4.321,1.185A7.547,7.547,0,0,0,35.66.54414a15.065,15.065,0,0,1-4.778,1.826,7.531,7.531,0,0,0-12.821,6.862,21.359,21.359,0,0,1-15.508-7.861,7.532,7.532,0,0,0,2.328,10.045,7.491,7.491,0,0,1-3.408-.941v.095a7.529,7.529,0,0,0,6.036,7.378,7.544,7.544,0,0,1-3.4.129,7.533,7.533,0,0,0,7.029,5.225,15.1,15.1,0,0,1-9.344,3.221A15.30007,15.30007,0,0,1,0,26.41714a21.294,21.294,0,0,0,11.534,3.377c13.839,0,21.407-11.461,21.407-21.4q0-.489-.022-.973A15.28,15.28,0,0,0,36.673,3.52214Z"/></svg>