<svg xmlns="http://www.w3.org/2000/svg" viewBox="0 0 144.86611 201.36208"><defs><style>.a{fill:aqua;}.b{fill:#004456;}.c{opacity:0.3;}</style></defs><title>work-empty</title><path class="a" d="M128.1459,200.89261l-85.607.46931c-6.04737.03315-11.81415-5.14718-12.88047-11.57059L.17086,12.16011C-.89545,5.7367,3.14249.50262,9.18986.46947l85.607-.46931C100.84425-.033,106.611,5.14733,107.67735,11.57075L137.1649,189.202C138.23122,195.62538,134.19327,200.85946,128.1459,200.89261Z"/><path class="b" d="M135.67633,200.89261l-85.607.46931c-6.04737.03315-11.81415-5.14718-12.88047-11.57059L7.70129,12.16011C6.635,5.7367,10.67292.50262,16.7203.46947l85.607-.46931c6.04737-.03315,11.81415,5.14718,12.88047,11.57059L144.69533,189.202C145.76165,195.62538,141.7237,200.85946,135.67633,200.89261Z"/><g class="c"><path class="a" d="M94.85488,1.00007c5.54395,0,10.85352,4.81543,11.83594,10.7345L136.17861,189.3658a9.51472,9.51472,0,0,1-1.86328,7.73462,7.97208,7.97208,0,0,1-6.1748,2.79224l-85.60742.46924-.05225.00012c-5.54395,0-10.85352-4.81543-11.83594-10.7345L1.15713,11.99629A9.51472,9.51472,0,0,1,3.02041,4.26167a7.97208,7.97208,0,0,1,6.1748-2.79224L94.80263,1.0002l.05225-.00012m-.00049-1L94.79677.0002,9.18984.46943C3.14248.50264-.89561,5.73665.1708,12.16011L29.65859,189.79133c1.0625,6.40308,6.79639,11.57068,12.82227,11.57068l.05811-.00012,85.60693-.46924c6.04736-.0332,10.08545-5.26733,9.019-11.69067L107.67715,11.57075C106.61465,5.16768,100.88076-.00017,94.85439.00007Z"/></g></svg>